<?xml version="1.0" encoding="utf-8"?>
<!-- Generator: Adobe Illustrator 18.0.0, SVG Export Plug-In . SVG Version: 6.00 Build 0)  -->
<!DOCTYPE svg PUBLIC "-//W3C//DTD SVG 1.1//EN" "http://www.w3.org/Graphics/SVG/1.1/DTD/svg11.dtd">
<svg version="1.1" id="Capa_1" xmlns="http://www.w3.org/2000/svg" xmlns:xlink="http://www.w3.org/1999/xlink" x="0px" y="0px"
	 viewBox="0 0 425.2 131.3" enable-background="new 0 0 425.2 131.3" xml:space="preserve">
<g>
	<path fill="#FFFFFF" d="M63,119.4c-15.5,0-28.1-12.6-28.2-28.1v-0.1V49.4h56.5l0,42.7C90.8,107.2,78.3,119.4,63,119.4z"/>
	<path fill="#8E9090" d="M62.3,50.9h-26v40.4c0.1,14.5,11.7,26.2,26,26.6V50.9z"/>
	<path fill="#0055B8" d="M63.8,83.5v34.5c14.3-0.4,25.9-12.2,26-26.6l0-0.5v-7.4H63.8z"/>
	<rect x="63.8" y="72.6" fill="#CF0A2C" width="26" height="9.4"/>
	<rect x="63.8" y="50.9" fill="#CF0A2C" width="26" height="9.4"/>
	<rect x="63.8" y="61.7" fill="#8E9090" width="26" height="9.4"/>
	<g>
		<path fill-rule="evenodd" clip-rule="evenodd" fill="#8D734A" d="M76.4,99.4c0,0-0.9,0.6-1.2,1.7c-0.3,1,0.4,2.5,0.4,2.5
			s-0.5-1.1-1.9-0.6c-0.9,0.3-1.2,1.1-0.1,2.4c0,0,0.4-0.6,1.2-0.5c0.8,0.1,1.4,1-0.2,3.1l1.1-0.5l0.7,0.8l0.8-0.9l1.1,0.5
			c0,0-2.2-2.7-0.4-3.1c0.7-0.2,1.2,0.5,1.2,0.5c1.1-1.3,0.7-2.1-0.1-2.4c-1.4-0.5-1.9,0.6-1.9,0.6s0.7-1.5,0.4-2.5
			C77.2,100,76.4,99.4,76.4,99.4z"/>
		<path fill="#FFFFFF" d="M76.4,99.4c0,0,0.8,0.6,1.1,1.7c0.3,1-0.4,2.5-0.4,2.5s0.4-0.7,1.2-0.7c0.2,0,0.4,0,0.7,0.1
			c0.8,0.3,1.2,1.1,0.1,2.4c0,0-0.3-0.5-0.9-0.5c-0.1,0-0.2,0-0.2,0c-1.8,0.4,0.4,3.1,0.4,3.1l-1.1-0.5l-0.8,0.9l-0.7-0.8l-1.1,0.5
			c1.7-2.2,1-3,0.2-3.1c-0.1,0-0.1,0-0.2,0c-0.7,0-1,0.5-1,0.5c-1.1-1.3-0.7-2.1,0.1-2.4c0.3-0.1,0.5-0.1,0.7-0.1
			c0.9,0,1.2,0.7,1.2,0.7s-0.7-1.5-0.4-2.5C75.5,100,76.4,99.4,76.4,99.4 M76.4,98.9c-0.1,0-0.2,0-0.3,0.1c0,0-1,0.7-1.4,1.9
			c-0.1,0.5-0.1,1,0,1.5c-0.1,0-0.2,0-0.4,0c-0.3,0-0.6,0.1-0.8,0.2c-0.5,0.2-0.9,0.5-1,1c-0.2,0.6,0.1,1.3,0.7,2.1
			c0.1,0.1,0.2,0.2,0.4,0.2c0,0,0,0,0,0c0.2,0,0.3-0.1,0.4-0.2c0,0,0.2-0.3,0.6-0.3c0,0,0.1,0,0.1,0c0.1,0,0.3,0.1,0.4,0.3
			c0.1,0.1,0.2,0.7-0.9,2.1c-0.1,0.2-0.1,0.4,0,0.6c0.1,0.1,0.2,0.2,0.4,0.2c0.1,0,0.1,0,0.2,0l0.8-0.3l0.5,0.6
			c0.1,0.1,0.2,0.2,0.3,0.2c0,0,0,0,0,0c0.1,0,0.3-0.1,0.3-0.1l0.6-0.6l0.8,0.4c0.1,0,0.1,0,0.2,0c0.1,0,0.3-0.1,0.4-0.2
			c0.1-0.2,0.1-0.4,0-0.6c-0.5-0.6-1.1-1.7-0.9-2.2c0,0,0.1-0.2,0.3-0.2c0,0,0.1,0,0.1,0c0.3,0,0.5,0.3,0.5,0.3
			c0.1,0.1,0.2,0.2,0.4,0.2c0,0,0,0,0,0c0.1,0,0.3-0.1,0.4-0.2c0.7-0.8,0.9-1.5,0.7-2.1c-0.1-0.5-0.5-0.8-1-1
			c-0.3-0.1-0.6-0.2-0.8-0.2c-0.1,0-0.3,0-0.4,0c0.1-0.5,0.1-1,0-1.5c-0.3-1.2-1.2-1.9-1.2-1.9C76.6,98.9,76.5,98.9,76.4,98.9
			L76.4,98.9z"/>
	</g>
	<g>
		<path fill="#8D734A" d="M78.2,106.2c0,0.2-0.2,0.4-0.4,0.4h-3c-0.2,0-0.4-0.2-0.4-0.4l0,0c0-0.2,0.2-0.4,0.4-0.4h3
			C78,105.8,78.2,106,78.2,106.2L78.2,106.2z"/>
		<path fill="#FFFFFF" d="M77.8,105.8c0.2,0,0.4,0.2,0.4,0.4c0,0.2-0.2,0.4-0.4,0.4h-3c-0.2,0-0.4-0.2-0.4-0.4
			c0-0.2,0.2-0.4,0.4-0.4H77.8 M77.8,105.5h-3c-0.4,0-0.7,0.3-0.7,0.7c0,0.4,0.3,0.7,0.7,0.7h3c0.4,0,0.7-0.3,0.7-0.7
			C78.5,105.8,78.2,105.5,77.8,105.5L77.8,105.5z"/>
	</g>
	<g>
		<path fill-rule="evenodd" clip-rule="evenodd" fill="#8D734A" d="M70.3,88.1c0,0-0.9,0.6-1.2,1.7c-0.3,1,0.4,2.5,0.4,2.5
			s-0.5-1.1-1.9-0.6c-0.9,0.3-1.2,1.1-0.1,2.4c0,0,0.4-0.6,1.2-0.5c0.8,0.1,1.4,1-0.2,3.1l1.1-0.5l0.7,0.8l0.8-0.9l1.1,0.5
			c0,0-2.2-2.7-0.4-3.1C72.6,93.4,73,94,73,94c1.1-1.3,0.7-2.1-0.1-2.4c-1.4-0.5-1.9,0.6-1.9,0.6s0.7-1.5,0.4-2.5
			C71.1,88.7,70.3,88.1,70.3,88.1z"/>
		<path fill="#FFFFFF" d="M70.3,88.1c0,0,0.8,0.6,1.1,1.7c0.3,1-0.4,2.5-0.4,2.5s0.4-0.7,1.2-0.7c0.2,0,0.4,0,0.7,0.1
			c0.8,0.3,1.2,1.1,0.1,2.4c0,0-0.3-0.5-0.9-0.5c-0.1,0-0.2,0-0.2,0c-1.8,0.4,0.4,3.1,0.4,3.1l-1.1-0.5L70.3,97l-0.7-0.8l-1.1,0.5
			c1.7-2.2,1-3,0.2-3.1c-0.1,0-0.1,0-0.2,0c-0.7,0-1,0.5-1,0.5c-1.1-1.3-0.7-2.1,0.1-2.4c0.3-0.1,0.5-0.1,0.7-0.1
			c0.9,0,1.2,0.7,1.2,0.7s-0.7-1.5-0.4-2.5C69.4,88.7,70.3,88.1,70.3,88.1 M70.3,87.6c-0.1,0-0.2,0-0.3,0.1c0,0-1,0.7-1.4,1.9
			c-0.1,0.5-0.1,1,0,1.5c-0.1,0-0.2,0-0.4,0c-0.3,0-0.6,0.1-0.8,0.2c-0.5,0.2-0.9,0.5-1,1c-0.2,0.6,0.1,1.3,0.7,2.1
			c0.1,0.1,0.2,0.2,0.4,0.2c0,0,0,0,0,0c0.2,0,0.3-0.1,0.4-0.2c0,0,0.2-0.3,0.6-0.3c0,0,0.1,0,0.1,0c0.1,0,0.3,0.1,0.4,0.3
			c0.1,0.1,0.2,0.7-0.9,2.1c-0.1,0.2-0.1,0.4,0,0.6c0.1,0.1,0.2,0.2,0.4,0.2c0.1,0,0.1,0,0.2,0l0.8-0.3l0.5,0.6
			c0.1,0.1,0.2,0.2,0.3,0.2c0,0,0,0,0,0c0.1,0,0.3-0.1,0.3-0.1l0.6-0.6l0.8,0.4c0.1,0,0.1,0,0.2,0c0.1,0,0.3-0.1,0.4-0.2
			c0.1-0.2,0.1-0.4,0-0.6c-0.5-0.6-1.1-1.7-0.9-2.2c0,0,0.1-0.2,0.3-0.2c0,0,0.1,0,0.1,0c0.3,0,0.5,0.3,0.5,0.3
			c0.1,0.1,0.2,0.2,0.4,0.2c0,0,0,0,0,0c0.1,0,0.3-0.1,0.4-0.2c0.7-0.8,0.9-1.5,0.7-2.1c-0.1-0.5-0.5-0.8-1-1
			c-0.3-0.1-0.6-0.2-0.8-0.2c-0.1,0-0.3,0-0.4,0c0.1-0.5,0.1-1,0-1.5c-0.3-1.2-1.2-1.9-1.2-1.9C70.5,87.6,70.4,87.6,70.3,87.6
			L70.3,87.6z"/>
	</g>
	<g>
		<path fill="#8D734A" d="M72.1,94.9c0,0.2-0.2,0.4-0.4,0.4h-3c-0.2,0-0.4-0.2-0.4-0.4l0,0c0-0.2,0.2-0.4,0.4-0.4h3
			C71.9,94.5,72.1,94.7,72.1,94.9L72.1,94.9z"/>
		<path fill="#FFFFFF" d="M71.7,94.5c0.2,0,0.4,0.2,0.4,0.4c0,0.2-0.2,0.4-0.4,0.4h-3c-0.2,0-0.4-0.2-0.4-0.4c0-0.2,0.2-0.4,0.4-0.4
			H71.7 M71.7,94.2h-3c-0.4,0-0.7,0.3-0.7,0.7s0.3,0.7,0.7,0.7h3c0.4,0,0.7-0.3,0.7-0.7S72.1,94.2,71.7,94.2L71.7,94.2z"/>
	</g>
	<path fill-rule="evenodd" clip-rule="evenodd" fill="#8D734A" d="M81.7,88.1c0,0-0.9,0.6-1.2,1.7c-0.3,1,0.4,2.5,0.4,2.5
		s-0.5-1.1-1.9-0.6c-0.9,0.3-1.2,1.1-0.1,2.4c0,0,0.4-0.6,1.2-0.5c0.8,0.1,1.4,1-0.2,3.1l1.1-0.5l0.7,0.8l0.8-0.9l1.1,0.5
		c0,0-2.2-2.7-0.3-3.1c0.7-0.2,1.2,0.5,1.2,0.5c1.1-1.3,0.7-2.1-0.1-2.4c-1.4-0.5-1.9,0.6-1.9,0.6s0.7-1.5,0.4-2.5
		C82.5,88.7,81.7,88.1,81.7,88.1z"/>
	<path fill="#FFFFFF" d="M81.7,88.1c0,0,0.8,0.6,1.1,1.7c0.3,1-0.4,2.5-0.4,2.5s0.4-0.7,1.2-0.7c0.2,0,0.4,0,0.7,0.1
		c0.8,0.3,1.2,1.1,0.1,2.4c0,0-0.3-0.5-0.9-0.5c-0.1,0-0.2,0-0.2,0c-1.8,0.4,0.3,3.1,0.3,3.1l-1.1-0.5L81.7,97l-0.7-0.8l-1.1,0.5
		c1.6-2.2,1-3,0.2-3.1c-0.1,0-0.1,0-0.2,0c-0.7,0-1,0.5-1,0.5c-1.1-1.3-0.7-2.1,0.1-2.4c0.3-0.1,0.5-0.1,0.7-0.1
		c0.9,0,1.2,0.7,1.2,0.7s-0.7-1.5-0.4-2.5C80.8,88.7,81.7,88.1,81.7,88.1 M81.7,87.6c-0.1,0-0.2,0-0.3,0.1c0,0-1,0.7-1.4,1.9
		c-0.1,0.5-0.1,1,0,1.5c-0.1,0-0.2,0-0.4,0c-0.3,0-0.6,0.1-0.8,0.2c-0.5,0.2-0.9,0.5-1,1c-0.2,0.6,0.1,1.3,0.7,2.1
		c0.1,0.1,0.2,0.2,0.4,0.2c0,0,0,0,0,0c0.2,0,0.3-0.1,0.4-0.2c0,0,0.2-0.3,0.6-0.3c0,0,0.1,0,0.1,0c0.1,0,0.3,0.1,0.4,0.3
		c0.1,0.1,0.2,0.7-0.9,2.1c-0.1,0.2-0.1,0.4,0,0.6c0.1,0.1,0.2,0.2,0.4,0.2c0.1,0,0.1,0,0.2,0l0.8-0.3l0.5,0.6
		c0.1,0.1,0.2,0.2,0.3,0.2c0,0,0,0,0,0c0.1,0,0.3-0.1,0.3-0.1l0.6-0.6l0.8,0.4c0.1,0,0.1,0,0.2,0c0.1,0,0.3-0.1,0.4-0.2
		c0.1-0.2,0.1-0.4,0-0.6c-0.5-0.6-1.1-1.7-0.9-2.2c0,0,0.1-0.2,0.3-0.2c0,0,0.1,0,0.1,0c0.3,0,0.5,0.3,0.5,0.3
		c0.1,0.1,0.2,0.2,0.4,0.2c0,0,0,0,0,0c0.1,0,0.3-0.1,0.4-0.2c0.7-0.8,0.9-1.5,0.7-2.1c-0.1-0.5-0.5-0.8-1-1
		c-0.3-0.1-0.6-0.2-0.8-0.2c-0.1,0-0.3,0-0.4,0c0.1-0.5,0.1-1,0-1.5c-0.3-1.2-1.2-1.9-1.2-1.9C81.9,87.6,81.8,87.6,81.7,87.6
		L81.7,87.6z"/>
	<g>
		<path fill="#8D734A" d="M83.5,94.9c0,0.2-0.2,0.4-0.4,0.4h-3c-0.2,0-0.4-0.2-0.4-0.4l0,0c0-0.2,0.2-0.4,0.4-0.4h3
			C83.3,94.5,83.5,94.7,83.5,94.9L83.5,94.9z"/>
		<path fill="#FFFFFF" d="M83.1,94.5c0.2,0,0.4,0.2,0.4,0.4c0,0.2-0.2,0.4-0.4,0.4h-3c-0.2,0-0.4-0.2-0.4-0.4c0-0.2,0.2-0.4,0.4-0.4
			H83.1 M83.1,94.2h-3c-0.4,0-0.7,0.3-0.7,0.7s0.3,0.7,0.7,0.7h3c0.4,0,0.7-0.3,0.7-0.7S83.5,94.2,83.1,94.2L83.1,94.2z"/>
	</g>
	<path d="M57.8,97.9H40.8V72.7h17.1V97.9z M42,96.7h14.6V73.9H42V96.7z"/>
	<path d="M54.1,97.9h-9.7V72.7h9.7V97.9z M45.7,96.7h7.2V73.9h-7.2V96.7z"/>
	<rect x="48.7" y="64.5" width="1.2" height="32.8"/>
	<path d="M49.3,64.7c-1,0-1.8-0.8-1.8-1.8c0-1,0.8-1.8,1.8-1.8c1,0,1.8,0.8,1.8,1.8C51.1,63.9,50.3,64.7,49.3,64.7z M49.3,62.4
		c-0.3,0-0.6,0.3-0.6,0.6c0,0.3,0.3,0.6,0.6,0.6c0.3,0,0.6-0.3,0.6-0.6C49.9,62.6,49.6,62.4,49.3,62.4z"/>
	<path fill="#FFFFFF" d="M91.2,30.1c0-0.6-0.5-1.1-1.1-1.2c0.5-0.2,0.9-0.6,0.9-1.2c0-0.7-0.6-1.3-1.3-1.3c0,0-0.1,0-0.1,0
		c0.3-0.2,0.5-0.6,0.5-1c0-0.7-0.6-1.3-1.3-1.3c-0.3,0-0.5,0.1-0.7,0.2c0.1-0.2,0.2-0.4,0.2-0.7c0-0.7-0.6-1.3-1.3-1.3
		c-0.4,0-0.7,0.1-0.9,0.3c0-0.1,0-0.2,0-0.3c0-0.7-0.6-1.3-1.3-1.3c-0.5,0-0.9,0.2-1.1,0.5c0-0.7-0.6-1.2-1.3-1.2
		c-0.6,0-1,0.3-1.2,0.8c-0.1-0.6-0.7-1-1.3-1c-0.8,0-1.4,0.6-1.4,1.3c0,0,0,0.1,0,0.1c0,0,0,0,0,0c-0.2-0.2-0.6-0.4-1-0.4
		c-0.2,0-0.4,0.1-0.6,0.1c0.1-0.2,0.1-0.4,0.1-0.6c0-0.7-0.6-1.3-1.3-1.3c-0.4,0-0.7,0.1-0.9,0.3c0-0.1,0-0.2,0-0.3
		c0-0.7-0.6-1.3-1.3-1.3c-0.5,0-1,0.3-1.2,0.7v0c0-0.7-0.6-1.3-1.3-1.3c-0.6,0-1.2,0.4-1.3,0.9c-0.2-0.5-0.7-0.9-1.3-0.9
		c-0.7,0-1.3,0.5-1.4,1.1c-0.2-0.2-0.4-0.3-0.7-0.4c-0.1-1.1-0.8-2.1-1.8-2.5v-0.3H65h0.5v-0.5v-1.2v-0.5H65h-0.8v-1v-0.5h-0.5H63
		h-0.6h-0.5v0.5v1H61h-0.5v0.5v1.2v0.5H61h0.8v0.3c-1.1,0.4-1.8,1.4-1.9,2.5c-0.3,0.1-0.5,0.2-0.7,0.4c-0.1-0.6-0.7-1.1-1.3-1.1
		c-0.6,0-1.1,0.4-1.3,0.9c-0.2-0.5-0.7-0.9-1.3-0.9c-0.7,0-1.3,0.6-1.3,1.3v0c-0.2-0.4-0.7-0.7-1.2-0.7c-0.7,0-1.3,0.6-1.3,1.3
		c0,0.1,0,0.2,0,0.3c-0.2-0.2-0.6-0.3-0.9-0.3c-0.7,0-1.3,0.6-1.3,1.3c0,0.2,0.1,0.4,0.1,0.6c-0.2-0.1-0.4-0.1-0.6-0.1
		c-0.4,0-0.7,0.2-1,0.4c0,0,0,0,0,0c0,0,0-0.1,0-0.1c0-0.7-0.6-1.3-1.4-1.3c-0.6,0-1.2,0.4-1.3,1c-0.2-0.4-0.7-0.8-1.2-0.8
		c-0.7,0-1.3,0.5-1.3,1.2c-0.2-0.3-0.7-0.5-1.1-0.5c-0.7,0-1.3,0.6-1.3,1.3c0,0.1,0,0.2,0,0.3c-0.2-0.2-0.6-0.3-0.9-0.3
		c-0.7,0-1.3,0.6-1.3,1.3c0,0.3,0.1,0.5,0.2,0.7c-0.2-0.1-0.5-0.2-0.7-0.2c-0.7,0-1.3,0.6-1.3,1.3c0,0.4,0.2,0.8,0.5,1
		c0,0-0.1,0-0.1,0c-0.7,0-1.3,0.6-1.3,1.3c0,0.6,0.4,1,0.9,1.2c-0.6,0.1-1.1,0.6-1.1,1.2c0,0.7,0.6,1.3,1.3,1.3c0.1,0,0.1,0,0.2,0
		c-0.2,0.2-0.4,0.5-0.4,0.9c0,0.6,0.5,1.1,1.1,1.2c0,0.1,0,0.1,0,0.2l0.1,0.6l0.6-0.1c0.1,0,0.2,0,0.3,0c0.1,0,0.2,0,0.2,0
		c0.3,0,0.4,0,0.5,0.1c0.1,0,0.1,0.1,0.2,0.2c0.2,0.2,0.2,0.3,0.4,0.5c0.1,0.1,0.1,0.2,0.2,0.3c-0.1,0.1-0.1,0.3-0.1,0.4
		c0,0.4,0.2,0.8,0.5,1.1c0.3,0.3,0.7,0.5,1.1,0.5c0.1,0,0.2,0,0.3,0c0.2,0.2,0.3,0.4,0.5,0.6c0,0,0.1,0.1,0.3,0.2
		c2.9,2.7,4,4.1,4.3,4.9c0,0,0,0,0,0l0,0.1l0,0l0,0c-0.1,0.2-0.1,0.3-0.2,0.4l-0.1,0.3l0.2,0.2c0.1,0.1,0.1,0.2,0.2,0.3
		c0.1,0.2,0.2,0.3,0.4,0.4l0.1,0.1l0.1,0c1.8,0.5,2.7,0.7,4.4,1.1c1.5,0.3,2.4,0.4,3.8,0.6l0.9,0.1c2.8,0.4,4.3,0.4,7.2,0.5
		c0.2,0,0.5,0,0.7,0c3.6,0,6-0.3,9.8-1c0.4-0.1,0.9-0.2,1.3-0.2c1.5-0.3,2.8-0.5,3.9-0.9c0.4-0.1,0.5-0.4,0.5-0.6l0-0.1l0,0l0,0
		c0.1-0.1,0.1-0.4,0.1-0.7c0-0.1-0.1-0.2-0.1-0.3c0.5-1,1.8-3,4.4-5c0.4-0.3,0.6-0.5,0.8-0.8c0.4,0,0.8-0.2,1.1-0.5
		c0.3-0.3,0.5-0.7,0.5-1.1c0-0.2,0-0.4-0.1-0.5c0.1-0.2,0.2-0.3,0.3-0.4c0,0,0.1-0.1,0.1-0.1c0-0.1,0-0.1,0.1-0.1
		c0.1,0,0.1-0.1,0.2-0.1c0.1,0,0.1,0,0.2,0c0.3-0.1,0.5-0.1,0.7-0.1c0.1,0,0.1,0,0.2,0l0.6,0l-0.1-0.6l0-0.2c0.1,0,0.1,0,0.2,0
		c0.7,0,1.3-0.6,1.3-1.3c0-0.3-0.1-0.6-0.4-0.9c0.1,0,0.1,0,0.2,0C90.6,31.4,91.2,30.8,91.2,30.1z"/>
	<path fill-rule="evenodd" clip-rule="evenodd" fill="#CF0A2C" d="M37.4,30.3c4-3.8,7.6-4.5,13.2-4.1c4.8-0.7,6.3-2.8,12.9-2.5h-0.4
		c6.6-0.2,7.6,1.8,12.4,2.5l-0.1,0c5.6-0.4,9.3,0.6,13.3,4.4c0,0-2.1,3.2-3.6,4.9c-1.5,1.7-4.2,3.5-4.2,3.5c0,0-18.3-4.8-35.7-0.1
		c0,0-2.3-1.6-4.2-3.7C39,33,37.3,30.4,37.4,30.3z"/>
	<path fill-rule="evenodd" clip-rule="evenodd" fill="#8D734A" d="M63.7,16.3v-1.2H65v-1.2h-1.3v-1.5H63h-0.6v1.5H61v1.2h1.3v1.2
		c-1.1,0.3-1.9,1.2-1.9,2.3c0,1.3,1.2,2.4,2.6,2.4c1.4,0,2.6-1.1,2.6-2.4C65.6,17.6,64.8,16.6,63.7,16.3z"/>
	<path fill-rule="evenodd" clip-rule="evenodd" fill="#8D734A" d="M49.3,22.5c-0.3-0.1-0.5-0.1-0.8-0.2c-0.5-0.1-1.1-0.1-1.6-0.1
		c0.2-0.1,0.3-0.3,0.3-0.6c0-0.4-0.4-0.7-0.8-0.7c-0.4,0-0.8,0.3-0.8,0.7c0,0.2,0.1,0.4,0.3,0.6c0,0-0.1,0-0.1,0
		c-0.4,0-0.9,0.1-1.3,0.1c0.1-0.1,0.2-0.3,0.2-0.5c0-0.4-0.4-0.7-0.8-0.7c-0.4,0-0.8,0.3-0.8,0.7c0,0.3,0.2,0.5,0.4,0.7
		c-0.5,0.1-0.9,0.2-1.4,0.4c0.1-0.1,0.1-0.3,0.1-0.4c0-0.4-0.4-0.7-0.8-0.7c-0.4,0-0.8,0.3-0.8,0.7c0,0.4,0.3,0.7,0.7,0.7
		c-0.4,0.2-0.9,0.4-1.3,0.7c0-0.1,0-0.1,0-0.2c0-0.4-0.4-0.7-0.8-0.7c-0.4,0-0.8,0.3-0.8,0.7c0,0.4,0.4,0.7,0.8,0.7c0,0,0,0,0,0
		c-0.3,0.2-0.6,0.4-0.8,0.7c-0.1,0.1-0.2,0.2-0.2,0.3c0-0.4-0.4-0.7-0.8-0.7c-0.4,0-0.8,0.3-0.8,0.7c0,0.4,0.4,0.7,0.8,0.7
		c0.1,0,0.2,0,0.3,0c-0.2,0.4-0.4,0.7-0.5,1.2c-0.1-0.2-0.4-0.3-0.7-0.3c-0.4,0-0.8,0.3-0.8,0.7c0,0.4,0.4,0.7,0.8,0.7
		c0.2,0,0.3,0,0.5-0.1c-0.1,0.5-0.1,0.9,0,1.4c-0.2-0.2-0.4-0.3-0.6-0.3c-0.4,0-0.8,0.3-0.8,0.7c0,0.4,0.4,0.7,0.8,0.7
		c0.3,0,0.6-0.2,0.7-0.4c0.1,0.4,0.2,0.7,0.4,1.1c-0.4,0-0.7,0.3-0.7,0.7c0,0.4,0.4,0.7,0.8,0.7c0.3,0,0.5-0.1,0.7-0.3
		c0.2,0.2,0.3,0.3,0.5,0.5c0.3-0.6,2.1-1.9,2.1-1.9S37.9,28.4,40,26c2.1-2.4,6.5-3,8.9-2.4c0.1-0.3,0.4-0.7,0.6-1
		C49.5,22.5,49.4,22.5,49.3,22.5z"/>
	<path fill-rule="evenodd" clip-rule="evenodd" fill="#8D734A" d="M60.6,20.4c0.3-0.1,0.5-0.4,0.5-0.7c0-0.4-0.4-0.7-0.8-0.7
		c-0.4,0-0.8,0.3-0.8,0.7c0,0.1,0,0.2,0,0.2c-0.4-0.1-0.7-0.2-1.1-0.3c0.2-0.1,0.4-0.4,0.4-0.6c0-0.4-0.4-0.7-0.8-0.7
		c-0.4,0-0.8,0.3-0.8,0.7c0,0.2,0.1,0.3,0.2,0.5c-0.5,0-0.9,0-1.4,0c0.1-0.1,0.2-0.3,0.2-0.5c0-0.4-0.4-0.7-0.8-0.7
		c-0.4,0-0.8,0.3-0.8,0.7c0,0.3,0.2,0.5,0.4,0.6c-0.6,0.1-1.1,0.3-1.5,0.4c0.1-0.1,0.1-0.3,0.1-0.4c0-0.4-0.4-0.7-0.8-0.7
		c-0.4,0-0.8,0.3-0.8,0.7c0,0.3,0.3,0.6,0.6,0.7c-0.5,0.2-0.8,0.4-1.2,0.6c0,0,0-0.1,0-0.1c0-0.4-0.4-0.7-0.8-0.7
		c-0.4,0-0.8,0.3-0.8,0.7c0,0.4,0.4,0.7,0.8,0.7c-0.1,0-0.1,0.1-0.2,0.2c-0.2,0.2-0.4,0.4-0.6,0.6c0,0-0.1,0.1-0.2,0.3c0,0,0,0,0,0
		c0-0.4-0.4-0.7-0.8-0.7c-0.4,0-0.8,0.3-0.8,0.7c0,0.4,0.4,0.7,0.8,0.7c0.1,0,0.3,0,0.4-0.1c0,0.1-0.1,0.1-0.1,0.2
		c-0.2,0.4-0.3,0.8-0.4,1.1c-0.1-0.2-0.4-0.4-0.7-0.4c-0.4,0-0.8,0.3-0.8,0.7c0,0.4,0.4,0.7,0.8,0.7c0.2,0,0.4-0.1,0.6-0.2
		c0,0.4,0,0.8,0.1,1.3c-0.1-0.1-0.3-0.2-0.5-0.2c-0.4,0-0.8,0.3-0.8,0.7c0,0.4,0.4,0.7,0.8,0.7c0.4,0,0.6-0.2,0.8-0.5
		c0.1,0.3,0.3,0.7,0.5,1c-0.4,0-0.7,0.3-0.7,0.7c0,0.4,0.4,0.7,0.8,0.7c0.4,0,0.8-0.3,0.8-0.6c0.1,0,0.8,1,0.8,1s0.1-0.1,0.5-0.7
		c0.2-0.3,1.3-1.7,1.3-1.7s-0.8-0.7-1.2-1.1c-1.3-1.6-0.7-3.9,1.6-5.1c2.5-1.3,5.7-1.1,7.9,0.4c0-0.3,0.3-0.9,0.3-1.2
		C61.4,20.8,61,20.6,60.6,20.4z"/>
	<path fill-rule="evenodd" clip-rule="evenodd" fill="#8D734A" d="M76.8,22.5c0.3-0.1,0.5-0.1,0.8-0.2c0.5-0.1,1.1-0.1,1.6-0.1
		c-0.2-0.1-0.3-0.3-0.3-0.6c0-0.4,0.4-0.7,0.8-0.7c0.4,0,0.8,0.3,0.8,0.7c0,0.2-0.1,0.4-0.3,0.6c0,0,0.1,0,0.1,0
		c0.4,0,0.9,0.1,1.3,0.1c-0.1-0.1-0.2-0.3-0.2-0.5c0-0.4,0.4-0.7,0.8-0.7c0.4,0,0.8,0.3,0.8,0.7c0,0.3-0.2,0.5-0.4,0.7
		c0.5,0.1,0.9,0.2,1.4,0.4c-0.1-0.1-0.1-0.3-0.1-0.4c0-0.4,0.4-0.7,0.8-0.7c0.4,0,0.8,0.3,0.8,0.7c0,0.4-0.3,0.7-0.7,0.7
		c0.4,0.2,0.9,0.4,1.3,0.7c0-0.1,0-0.1,0-0.2c0-0.4,0.4-0.7,0.8-0.7c0.4,0,0.8,0.3,0.8,0.7c0,0.4-0.4,0.7-0.8,0.7c0,0,0,0,0,0
		c0.3,0.2,0.6,0.4,0.8,0.7c0.1,0.1,0.2,0.2,0.2,0.3c0-0.4,0.4-0.7,0.8-0.7c0.4,0,0.8,0.3,0.8,0.7c0,0.4-0.4,0.7-0.8,0.7
		c-0.1,0-0.2,0-0.3,0c0.2,0.4,0.4,0.7,0.5,1.2c0.1-0.2,0.4-0.3,0.7-0.3c0.4,0,0.8,0.3,0.8,0.7c0,0.4-0.4,0.7-0.8,0.7
		c-0.2,0-0.3,0-0.5-0.1c0.1,0.5,0.1,0.9,0,1.4c0.2-0.2,0.4-0.3,0.6-0.3c0.4,0,0.8,0.3,0.8,0.7c0,0.4-0.4,0.7-0.8,0.7
		c-0.3,0-0.6-0.2-0.7-0.4c-0.1,0.4-0.2,0.7-0.4,1.1c0.4,0,0.7,0.3,0.7,0.7c0,0.4-0.4,0.7-0.8,0.7c-0.3,0-0.5-0.1-0.7-0.3
		c-0.2,0.2-0.3,0.3-0.5,0.5c-0.3-0.6-2.1-1.9-2.1-1.9s2.7-2.8,0.6-5.2c-2.1-2.4-6.5-3-8.9-2.4c-0.1-0.3-0.4-0.7-0.6-1
		C76.6,22.5,76.7,22.5,76.8,22.5z"/>
	<path fill-rule="evenodd" clip-rule="evenodd" fill="#8D734A" d="M65.5,20.4C65.2,20.2,65,20,65,19.7c0-0.4,0.4-0.7,0.8-0.7
		c0.4,0,0.8,0.3,0.8,0.7c0,0.1,0,0.2,0,0.2c0.4-0.1,0.7-0.2,1.1-0.3c-0.2-0.1-0.4-0.4-0.4-0.6c0-0.4,0.4-0.7,0.8-0.7
		c0.4,0,0.8,0.3,0.8,0.7c0,0.2-0.1,0.3-0.2,0.5c0.5,0,0.9,0,1.4,0c-0.1-0.1-0.2-0.3-0.2-0.5c0-0.4,0.4-0.7,0.8-0.7
		c0.4,0,0.8,0.3,0.8,0.7c0,0.3-0.2,0.5-0.4,0.6c0.6,0.1,1.1,0.3,1.5,0.4c-0.1-0.1-0.1-0.3-0.1-0.4c0-0.4,0.4-0.7,0.8-0.7
		c0.4,0,0.8,0.3,0.8,0.7c0,0.3-0.3,0.6-0.6,0.7c0.5,0.2,0.8,0.4,1.2,0.6c0,0,0-0.1,0-0.1c0-0.4,0.4-0.7,0.8-0.7
		c0.4,0,0.8,0.3,0.8,0.7c0,0.4-0.4,0.7-0.8,0.7c0.1,0,0.1,0.1,0.2,0.2c0.2,0.2,0.4,0.4,0.6,0.6c0,0,0.1,0.1,0.2,0.3c0,0,0,0,0,0
		c0-0.4,0.4-0.7,0.8-0.7c0.4,0,0.8,0.3,0.8,0.7c0,0.4-0.4,0.7-0.8,0.7c-0.1,0-0.3,0-0.4-0.1c0,0.1,0.1,0.1,0.1,0.2
		c0.2,0.4,0.3,0.8,0.4,1.1c0.1-0.2,0.4-0.4,0.7-0.4c0.4,0,0.8,0.3,0.8,0.7c0,0.4-0.4,0.7-0.8,0.7c-0.2,0-0.4-0.1-0.6-0.2
		c0,0.4,0,0.8-0.1,1.3c0.1-0.1,0.3-0.2,0.5-0.2c0.4,0,0.8,0.3,0.8,0.7c0,0.4-0.4,0.7-0.8,0.7c-0.4,0-0.6-0.2-0.8-0.5
		c-0.1,0.3-0.3,0.7-0.5,1c0.4,0,0.7,0.3,0.7,0.7c0,0.4-0.4,0.7-0.8,0.7c-0.4,0-0.8-0.3-0.8-0.6c-0.1,0-0.8,1-0.8,1s-0.1-0.1-0.5-0.7
		c-0.2-0.3-1.3-1.7-1.3-1.7s0.8-0.7,1.2-1.1c1.3-1.6,0.7-3.9-1.6-5.1c-2.5-1.3-5.7-1.1-7.9,0.4c0-0.3-0.3-0.9-0.3-1.2
		C64.6,20.8,65,20.6,65.5,20.4z"/>
	<path fill-rule="evenodd" clip-rule="evenodd" fill="#8D734A" d="M60.6,20.4c0.3-0.1,0.5-0.4,0.5-0.7c0-0.4-0.4-0.7-0.8-0.7
		c-0.4,0-0.8,0.3-0.8,0.7c0,0.1,0,0.2,0,0.2c-0.4-0.1-0.7-0.2-1.1-0.3c0.2-0.1,0.4-0.4,0.4-0.6c0-0.4-0.4-0.7-0.8-0.7
		c-0.4,0-0.8,0.3-0.8,0.7c0,0.2,0.1,0.3,0.2,0.5c-0.5,0-0.9,0-1.4,0c0.1-0.1,0.2-0.3,0.2-0.5c0-0.4-0.4-0.7-0.8-0.7
		c-0.4,0-0.8,0.3-0.8,0.7c0,0.3,0.2,0.5,0.4,0.6c-0.6,0.1-1.1,0.3-1.5,0.4c0.1-0.1,0.1-0.3,0.1-0.4c0-0.4-0.4-0.7-0.8-0.7
		c-0.4,0-0.8,0.3-0.8,0.7c0,0.3,0.3,0.6,0.6,0.7c-0.5,0.2-0.8,0.4-1.2,0.6c0,0,0-0.1,0-0.1c0-0.4-0.4-0.7-0.8-0.7
		c-0.4,0-0.8,0.3-0.8,0.7c0,0.4,0.4,0.7,0.8,0.7c-0.1,0-0.1,0.1-0.2,0.2c-0.2,0.2-0.4,0.4-0.6,0.6c0,0-0.1,0.1-0.2,0.3c0,0,0,0,0,0
		c0-0.4-0.4-0.7-0.8-0.7c-0.4,0-0.8,0.3-0.8,0.7c0,0.4,0.4,0.7,0.8,0.7c0.1,0,0.3,0,0.4-0.1c0,0.1-0.1,0.1-0.1,0.2
		c-0.2,0.4-0.3,0.8-0.4,1.1c-0.1-0.2-0.4-0.4-0.7-0.4c-0.4,0-0.8,0.3-0.8,0.7c0,0.4,0.4,0.7,0.8,0.7c0.2,0,0.4-0.1,0.6-0.2
		c0,0.4,0,0.8,0.1,1.3c-0.1-0.1-0.3-0.2-0.5-0.2c-0.4,0-0.8,0.3-0.8,0.7c0,0.4,0.4,0.7,0.8,0.7c0.4,0,0.6-0.2,0.8-0.5
		c0.1,0.3,0.3,0.7,0.5,1c-0.4,0-0.7,0.3-0.7,0.7c0,0.4,0.4,0.7,0.8,0.7c0.4,0,0.8-0.3,0.8-0.6c0.1,0,0.8,1,0.8,1s0.1-0.1,0.5-0.7
		c0.2-0.3,1.3-1.7,1.3-1.7s-0.8-0.7-1.2-1.1c-1.3-1.6-0.7-3.9,1.6-5.1c2.5-1.3,5.7-1.1,7.9,0.4c0-0.3,0.3-0.9,0.3-1.2
		C61.4,20.8,61,20.6,60.6,20.4z"/>
	<path fill="#FFFFFF" d="M70.8,18.3c0.4,0,0.8,0.3,0.8,0.7c0,0.3-0.2,0.5-0.4,0.6c0.6,0.1,1.1,0.3,1.5,0.4c-0.1-0.1-0.1-0.3-0.1-0.4
		c0-0.4,0.4-0.7,0.8-0.7c0.4,0,0.8,0.3,0.8,0.7c0,0.3-0.3,0.6-0.6,0.7c0.5,0.2,0.8,0.4,1.2,0.6c0,0,0-0.1,0-0.1
		c0-0.4,0.4-0.7,0.8-0.7c0.4,0,0.8,0.3,0.8,0.7c0,0.4-0.4,0.7-0.8,0.7c0.1,0,0.1,0.1,0.2,0.2c0.2,0.2,0.4,0.4,0.6,0.6
		c0,0,0.1,0.1,0.2,0.3c0,0,0,0,0,0c0-0.4,0.4-0.7,0.8-0.7c0.4,0,0.8,0.3,0.8,0.7c0,0.4-0.4,0.7-0.8,0.7c-0.1,0-0.3,0-0.4-0.1
		c0,0.1,0.1,0.1,0.1,0.2c0.2,0.4,0.3,0.8,0.4,1.1c0.1-0.2,0.4-0.4,0.7-0.4c0.4,0,0.8,0.3,0.8,0.7c0,0.4-0.4,0.7-0.8,0.7
		c-0.2,0-0.4-0.1-0.6-0.2c0,0.4,0,0.8-0.1,1.3c0.1-0.1,0.3-0.2,0.5-0.2c0.4,0,0.8,0.3,0.8,0.7c0,0.4-0.4,0.7-0.8,0.7
		c-0.4,0-0.6-0.2-0.8-0.5c-0.1,0.3-0.3,0.7-0.5,1c0.4,0,0.7,0.3,0.7,0.7c0,0.4-0.4,0.7-0.8,0.7c-0.4,0-0.8-0.3-0.8-0.6
		c-0.1,0-0.8,1-0.8,1s-0.1-0.1-0.5-0.7c-0.2-0.3-1.3-1.7-1.3-1.7s0.8-0.7,1.2-1.1c1.3-1.6,0.7-3.9-1.6-5.1c-1.1-0.6-2.3-0.9-3.6-0.9
		c-1.6,0-3.1,0.5-4.3,1.3c0-0.3-0.3-0.9-0.3-1.2c0-0.1,0.4-0.4,0.8-0.5C65.2,20.2,65,20,65,19.7c0-0.4,0.4-0.7,0.8-0.7
		c0.4,0,0.8,0.3,0.8,0.7c0,0.1,0,0.2,0,0.2c0.4-0.1,0.7-0.2,1.1-0.3c-0.2-0.1-0.4-0.4-0.4-0.6c0-0.4,0.4-0.7,0.8-0.7
		c0.4,0,0.8,0.3,0.8,0.7c0,0.2-0.1,0.3-0.2,0.5c0.2,0,0.4,0,0.6,0c0.3,0,0.5,0,0.8,0c-0.1-0.1-0.2-0.3-0.2-0.5
		C69.9,18.6,70.3,18.3,70.8,18.3 M70.8,17.8c-0.6,0-1.2,0.4-1.3,0.9c-0.2-0.5-0.7-0.9-1.3-0.9c-0.7,0-1.3,0.5-1.4,1.1
		c-0.2-0.3-0.6-0.4-1-0.4c-0.8,0-1.4,0.6-1.4,1.3c0,0.2,0,0.4,0.1,0.5c-0.3,0.2-0.5,0.4-0.5,0.8c0,0.2,0.1,0.4,0.2,0.7
		c0.1,0.2,0.1,0.4,0.1,0.5l0.1,0.8l0.7-0.5c1.2-0.8,2.6-1.2,4-1.2c1.2,0,2.3,0.3,3.3,0.8c1,0.5,1.7,1.4,1.9,2.3c0.1,0.7,0,1.4-0.5,2
		c-0.3,0.3-0.9,0.9-1.1,1l-0.4,0.3l0.3,0.4c0.4,0.5,1.1,1.4,1.3,1.7c0.5,0.8,0.6,0.8,0.7,0.9l0.4,0.3l0.3-0.4
		c0.1-0.1,0.2-0.3,0.3-0.5c0.2,0.2,0.5,0.3,0.9,0.3c0.7,0,1.3-0.6,1.3-1.3c0-0.3-0.1-0.6-0.3-0.8c0.1,0,0.2,0,0.3,0
		c0.7,0,1.3-0.6,1.3-1.3c0-0.5-0.3-0.9-0.7-1.1c0.5-0.2,1-0.6,1-1.2c0-0.7-0.6-1.2-1.3-1.3c0.3-0.2,0.5-0.6,0.5-1
		c0-0.7-0.6-1.3-1.3-1.3c-0.2,0-0.4,0.1-0.6,0.1c0.1-0.2,0.1-0.4,0.1-0.6c0-0.7-0.6-1.3-1.3-1.3c-0.4,0-0.7,0.1-0.9,0.3
		c0-0.1,0-0.2,0-0.3c0-0.7-0.6-1.3-1.3-1.3c-0.5,0-1,0.3-1.2,0.7v0C72.1,18.3,71.5,17.8,70.8,17.8L70.8,17.8z"/>
	<path fill="#FFFFFF" d="M55.3,18.3c0.5,0,0.8,0.3,0.8,0.7c0,0.2-0.1,0.4-0.2,0.5c0.3,0,0.5,0,0.8,0c0.2,0,0.4,0,0.6,0
		c-0.1-0.1-0.2-0.3-0.2-0.5c0-0.4,0.4-0.7,0.8-0.7c0.5,0,0.8,0.3,0.8,0.7c0,0.3-0.1,0.5-0.4,0.6c0.4,0.1,0.8,0.2,1.1,0.3
		c0-0.1,0-0.1,0-0.2c0-0.4,0.4-0.7,0.8-0.7c0.5,0,0.8,0.3,0.8,0.7c0,0.3-0.2,0.5-0.5,0.7c0.4,0.2,0.8,0.4,0.8,0.5
		c0,0.3-0.3,0.9-0.3,1.2c-1.3-0.8-2.8-1.3-4.3-1.3c-1.2,0-2.4,0.3-3.6,0.9c-2.3,1.2-2.9,3.5-1.6,5.1c0.4,0.4,1.2,1.1,1.2,1.1
		s-1.1,1.4-1.3,1.7c-0.4,0.7-0.5,0.7-0.5,0.7s-0.7-1-0.8-1c-0.1,0.4-0.4,0.6-0.8,0.6c-0.4,0-0.8-0.3-0.8-0.7c0-0.4,0.3-0.7,0.7-0.7
		c-0.2-0.4-0.4-0.8-0.5-1c-0.1,0.3-0.4,0.5-0.8,0.5c-0.4,0-0.8-0.3-0.8-0.7c0-0.4,0.4-0.7,0.8-0.7c0.2,0,0.4,0.1,0.5,0.2
		c-0.1-0.4-0.1-0.8-0.1-1.3c-0.1,0.1-0.4,0.2-0.6,0.2c-0.4,0-0.8-0.3-0.8-0.7c0-0.4,0.4-0.7,0.8-0.7c0.3,0,0.6,0.1,0.7,0.4
		c0.1-0.2,0.2-0.6,0.4-1.1c0-0.1,0.1-0.1,0.1-0.2c-0.1,0.1-0.3,0.1-0.4,0.1c-0.4,0-0.8-0.3-0.8-0.7c0-0.4,0.4-0.7,0.8-0.7
		c0.5,0,0.8,0.3,0.8,0.7c0,0,0,0,0,0c0.1-0.1,0.2-0.2,0.2-0.3c0.2-0.2,0.4-0.4,0.6-0.6c0.1-0.1,0.1-0.1,0.2-0.2
		c-0.4,0-0.8-0.3-0.8-0.7c0-0.4,0.4-0.7,0.8-0.7c0.5,0,0.8,0.3,0.8,0.7c0,0,0,0.1,0,0.1c0.4-0.2,0.7-0.4,1.2-0.6
		C52.2,20.3,52,20,52,19.6c0-0.4,0.4-0.7,0.8-0.7c0.5,0,0.8,0.3,0.8,0.7c0,0.2-0.1,0.3-0.1,0.4c0.4-0.1,0.9-0.2,1.5-0.4
		c-0.3-0.1-0.4-0.4-0.4-0.6C54.5,18.6,54.9,18.3,55.3,18.3 M55.3,17.8c-0.7,0-1.3,0.6-1.3,1.3v0c-0.2-0.4-0.7-0.7-1.2-0.7
		c-0.7,0-1.3,0.6-1.3,1.3c0,0.1,0,0.2,0,0.3c-0.2-0.2-0.6-0.3-0.9-0.3c-0.7,0-1.3,0.6-1.3,1.3c0,0.2,0.1,0.4,0.1,0.6
		c-0.2-0.1-0.4-0.1-0.6-0.1c-0.7,0-1.3,0.6-1.3,1.3c0,0.4,0.2,0.7,0.5,1c-0.7,0-1.3,0.6-1.3,1.3c0,0.6,0.4,1.1,1,1.2
		c-0.4,0.2-0.7,0.6-0.7,1.1c0,0.7,0.6,1.3,1.3,1.3c0.1,0,0.2,0,0.3,0c-0.2,0.2-0.3,0.5-0.3,0.8c0,0.7,0.6,1.3,1.3,1.3
		c0.3,0,0.6-0.1,0.9-0.3c0.1,0.1,0.2,0.3,0.3,0.5l0.3,0.4l0.4-0.3c0.1-0.1,0.2-0.1,0.7-0.9c0.1-0.2,0.8-1.1,1.3-1.7l0.3-0.4
		l-0.4-0.3c-0.2-0.2-0.9-0.7-1.1-1c-0.5-0.6-0.7-1.3-0.5-2c0.2-0.9,0.9-1.7,1.9-2.3c1-0.5,2.2-0.8,3.3-0.8c1.5,0,2.9,0.4,4,1.2
		l0.7,0.5l0.1-0.8c0-0.1,0.1-0.3,0.1-0.5c0.1-0.3,0.1-0.5,0.2-0.7c0.1-0.3-0.1-0.6-0.5-0.8c0.1-0.2,0.1-0.3,0.1-0.5
		c0-0.7-0.6-1.3-1.4-1.3c-0.4,0-0.7,0.2-1,0.4c-0.1-0.6-0.7-1.1-1.3-1.1c-0.6,0-1.1,0.4-1.3,0.9C56.5,18.2,55.9,17.8,55.3,17.8
		L55.3,17.8z"/>
	<path fill="none" stroke="#FFFFFF" stroke-width="0.5316" stroke-linejoin="round" stroke-miterlimit="22.9256" d="M49.7,43"/>
	<path fill="none" stroke="#FFFFFF" stroke-width="0.5316" stroke-linejoin="round" stroke-miterlimit="22.9256" d="M49.7,43"/>
	<path fill-rule="evenodd" clip-rule="evenodd" fill="#8D734A" d="M88,33.4c0-0.2-0.1-0.2-0.2-0.4c-0.2-0.2-0.3-0.3-0.6-0.4
		c-0.2,0-0.3,0-0.5,0c-0.2,0-0.4,0-0.6,0.1c-0.2,0.1-0.3,0.1-0.4,0.3l0-0.4l-0.4,0.2c-0.2,0.2-0.3,0.3-0.4,0.5
		c-0.1,0.2-0.2,0.4-0.2,0.7l-0.1,0.5c-0.1-0.1-0.2-0.3-0.3-0.4c-0.3-0.3-0.5-0.3-0.9-0.5c-0.2-0.1-0.3-0.2-0.5-0.3
		c0,0.1-0.1,0.2-0.1,0.3c0,0.1,0,0.2,0,0.3c-0.2,0-0.3,0-0.5,0c-0.2,0-0.4,0-0.6,0.1c-0.2,0-0.3,0.1-0.5,0.1
		c0.1,0.2,0.1,0.2,0.2,0.4c0.2,0.2,0.3,0.3,0.5,0.4c0.1,0.1,0.2,0.1,0.4,0.2c-0.1,0.1-0.2,0.1-0.3,0.2c-0.1,0.1-0.2,0.2-0.2,0.3
		c0.6,0.1,0.9,0.1,1.5,0.2c0.3,0,0.5,0,0.7,0c-0.1,0.1-0.1,0.2-0.1,0.2l0-0.1l-0.6,0.7c-0.3,0.3-0.5,0.5-0.9,0.8
		c-0.3,0.2-0.4,0.3-0.7,0.4c-0.3,0.1-0.5,0.2-0.8,0.2c-0.3,0-0.4,0.1-0.7,0c-0.2-0.1-0.3-0.1-0.4-0.3c-0.1-0.1-0.2-0.2-0.2-0.4
		c-0.1-0.2-0.1-0.4-0.1-0.6c0-0.2,0-0.3,0.1-0.4l-0.6-0.2c-0.1,0.2-0.2,0.3-0.4,0.5c-0.2,0.2-0.3,0.3-0.5,0.4
		c-0.3,0.2-0.4,0.2-0.7,0.3c-0.4,0.1-0.6,0.1-0.9,0c-0.3-0.1-0.5-0.1-0.7-0.3c-0.3-0.2-0.4-0.3-0.6-0.5c-0.2-0.2-0.3-0.4-0.5-0.7
		c-0.1-0.3-0.1-0.5-0.1-0.9l0.1-0.4l0.1-0.3c0.2-0.1,0.4-0.2,0.6-0.4c0.1,0,0.1,0.1,0.2,0.1c0.2,0.2,0.4,0.2,0.6,0.3
		c0.3,0.1,0.4,0.2,0.7,0.3c0-0.1,0-0.2-0.1-0.3c0-0.1-0.1-0.2-0.2-0.3c0.2,0,0.3,0,0.5,0c0.2,0,0.4-0.1,0.6-0.1
		c0.2-0.1,0.3-0.1,0.5-0.2c-0.1-0.1-0.2-0.2-0.3-0.3c-0.2-0.2-0.3-0.3-0.5-0.4c-0.2-0.1-0.3-0.2-0.6-0.2c0.1-0.1,0.1-0.1,0.2-0.2
		c0.1-0.1,0.1-0.2,0.2-0.3c-0.2,0-0.4,0-0.6,0c-0.4,0-0.6-0.1-1,0c-0.2,0-0.3,0.1-0.5,0.2c0,0,0,0,0,0c0.1-0.1,0.2-0.2,0.3-0.4
		c0.2-0.3,0.2-0.5,0.4-0.8c0.2-0.2,0.2-0.4,0.4-0.6c-0.2,0-0.3,0-0.4,0c-0.2,0-0.3,0.1-0.5,0.2c0.1-0.2,0.1-0.3,0-0.6
		c0-0.2-0.1-0.4-0.2-0.6c-0.1-0.2-0.1-0.3-0.3-0.4c-0.1,0.1-0.2,0.2-0.3,0.3c-0.2,0.2-0.2,0.3-0.4,0.5c-0.1,0.2-0.2,0.3-0.2,0.5
		c-0.1-0.1-0.2-0.2-0.3-0.3c-0.2-0.1-0.2-0.1-0.4-0.1c0,0.2,0.1,0.3,0.1,0.5c0.1,0.3,0,0.5,0.1,0.8c0.1,0.3,0.1,0.5,0.3,0.7
		c0,0,0,0-0.1,0c-0.1-0.2-0.2-0.3-0.4-0.4c-0.3-0.2-0.5-0.2-0.9-0.4c-0.2-0.1-0.3-0.2-0.5-0.2c0,0.2,0,0.2,0.1,0.4
		c0,0.1,0,0.2,0.1,0.3c-0.2-0.1-0.4-0.1-0.6,0c-0.2,0-0.4,0.1-0.6,0.2c-0.1,0.1-0.2,0.1-0.3,0.2c0.1,0.1,0.2,0.2,0.3,0.3
		c0.2,0.2,0.3,0.3,0.5,0.4c0.1,0.1,0.3,0.1,0.4,0.1C72,32.9,72,32.9,71.9,33c-0.1,0.1-0.1,0.2-0.2,0.3c0.2,0,0.4,0,0.6,0
		c0.3,0,0.4,0.1,0.7,0c0.2,0,0.3-0.1,0.5-0.1c0.1,0.2,0.1,0.3,0.3,0.4L73.8,34l-0.1,0.5L73.6,35c-0.1,0.2-0.2,0.3-0.4,0.4
		c-0.2,0.2-0.3,0.3-0.6,0.5c-0.3,0.1-0.4,0.2-0.8,0.3c-0.3,0.1-0.5,0.1-0.8,0c-0.3,0-0.5-0.1-0.9-0.2c-0.3-0.1-0.4-0.3-0.7-0.5
		c-0.2-0.2-0.3-0.3-0.4-0.5c-0.1-0.2-0.2-0.3-0.2-0.5c0-0.1,0-0.2,0.1-0.3L68.4,34c-0.1,0.2-0.1,0.3-0.2,0.4
		c-0.1,0.2-0.2,0.3-0.3,0.5c-0.2,0.2-0.3,0.3-0.5,0.4c-0.2,0.1-0.4,0.2-0.6,0.3c-0.3,0.1-0.5,0.1-0.8,0.1c-0.3,0-0.5,0-0.8-0.2
		c-0.3-0.1-0.4-0.2-0.6-0.4c-0.2-0.2-0.3-0.3-0.5-0.5c-0.2-0.2-0.3-0.3-0.4-0.6c-0.1-0.2-0.1-0.4-0.1-0.6c0-0.2,0-0.4,0-0.6
		c0-0.1,0-0.2,0.1-0.3c0.2-0.1,0.3-0.3,0.4-0.5c0.1,0.1,0.2,0.2,0.4,0.2c0.5,0.1,0.6,0.3,1.2,0.4l0.5,0c0-0.1-0.2-0.4-0.1-0.3
		c0.1,0.2-0.1-0.2-0.2-0.4c0.2-0.1,0.4-0.1,0.6-0.2c0.2-0.1,0.3-0.1,0.5-0.2c0.2-0.1,0.3-0.2,0.5-0.4c-0.1-0.1-0.2-0.1-0.3-0.2
		c-0.3-0.2-0.4-0.3-0.7-0.4c-0.3-0.1-0.4-0.1-0.7-0.1c0.1-0.1,0.1-0.2,0.2-0.4c0.1-0.2,0.1-0.2,0.2-0.4c-0.2,0-0.3,0.1-0.6,0.1
		c-0.5,0-0.7,0.1-1.2,0.3c-0.2,0.1-0.4,0.2-0.6,0.4l0,0c0.2-0.2,0.3-0.3,0.4-0.5c0.2-0.5,0.2-0.7,0.4-1.2c0.1-0.2,0.1-0.4,0.3-0.6
		c-0.2,0-0.3,0-0.4,0c-0.2,0.1-0.3,0.1-0.5,0.3c0-0.2,0-0.4-0.1-0.6c-0.1-0.3-0.2-0.4-0.3-0.6c-0.1-0.2-0.2-0.3-0.4-0.4
		c-0.2,0.2-0.3,0.3-0.4,0.5c-0.1,0.2-0.2,0.3-0.3,0.5c-0.1,0.2-0.1,0.4-0.1,0.6c-0.1-0.2-0.3-0.2-0.5-0.3c-0.2-0.1-0.3-0.1-0.5-0.1
		l0.3,0.7c0.1,0.5,0.2,0.7,0.4,1.2c0.1,0.2,0.2,0.3,0.4,0.5h0.1c0,0,0,0-0.1,0.1v0c-0.2-0.2-0.3-0.3-0.6-0.4
		c-0.5-0.2-0.7-0.2-1.2-0.4c-0.2-0.1-0.3-0.1-0.5-0.2c0,0.2,0,0.3,0.1,0.4c0.1,0.1,0.1,0.2,0.2,0.3c-0.3,0-0.4,0-0.7,0.1
		c-0.3,0.1-0.4,0.2-0.7,0.3c-0.1,0.1-0.2,0.2-0.2,0.3c0.2,0.2,0.2,0.3,0.4,0.4c0.2,0.1,0.3,0.2,0.5,0.2c0.2,0.1,0.3,0.1,0.5,0.1
		c-0.1,0.1-0.1,0.2-0.1,0.4c0,0.1-0.1,0.2-0.1,0.2l0.5-0.1c0.6-0.1,0.7-0.2,1.2-0.4c0.1,0,0.2-0.1,0.3-0.2c0.1,0.2,0.2,0.4,0.4,0.5
		c0.1,0.2,0.1,0.4,0.1,0.7c0,0.4-0.1,0.6-0.2,1c-0.2,0.3-0.3,0.4-0.5,0.7c-0.3,0.3-0.5,0.4-0.8,0.5c-0.4,0.1-0.6,0.2-1,0.2
		c-0.3,0-0.5,0-0.8-0.2c-0.3-0.1-0.5-0.3-0.8-0.5c-0.3-0.2-0.4-0.3-0.6-0.6c-0.1-0.2-0.2-0.3-0.2-0.5l-0.4,0c0,0.2,0,0.3-0.1,0.5
		c-0.1,0.2-0.2,0.4-0.3,0.6c-0.2,0.3-0.3,0.4-0.6,0.5c-0.3,0.2-0.5,0.3-0.9,0.4c-0.4,0.1-0.6,0.1-0.9,0c-0.3,0-0.5-0.1-0.8-0.2
		c-0.3-0.1-0.4-0.3-0.6-0.5c-0.2-0.2-0.4-0.3-0.5-0.6c-0.1-0.2-0.2-0.3-0.2-0.5c-0.1-0.3-0.1-0.5,0-0.8l-0.2,0
		c0.1-0.1,0.2-0.3,0.3-0.5c0.2,0.1,0.3,0.1,0.6,0.2c0.3,0.1,0.5,0,0.7,0c0.2,0,0.3,0,0.6,0c-0.1-0.1-0.1-0.1-0.2-0.2
		c-0.1-0.1-0.1-0.2-0.2-0.3c0.2,0,0.3-0.1,0.5-0.2c0.2-0.1,0.4-0.2,0.6-0.4c0.1-0.1,0.1-0.2,0.2-0.3c-0.2-0.1-0.3-0.1-0.4-0.2
		c-0.3-0.1-0.4-0.2-0.7-0.2c-0.2,0-0.3,0-0.4,0l0.1-0.3v-0.3L53.3,31c-0.3,0.1-0.5,0.2-0.8,0.4c-0.1,0.1-0.2,0.2-0.3,0.3l0,0.1
		c0,0-0.1-0.1-0.2-0.1l0.1,0c0.1-0.3,0.2-0.5,0.3-0.8c0-0.3,0-0.4,0-0.7c0.1-0.2,0.1-0.3,0.2-0.6c-0.2,0-0.3,0-0.4,0.1
		c-0.2,0.1-0.2,0.1-0.4,0.3c-0.1-0.2-0.1-0.3-0.2-0.5c-0.1-0.1-0.1-0.2-0.3-0.4c-0.2-0.2-0.3-0.3-0.5-0.4c-0.1,0.2-0.2,0.3-0.3,0.5
		c-0.1,0.2-0.1,0.3-0.1,0.6c0,0.2,0,0.3,0,0.5c-0.1-0.1-0.2-0.1-0.4-0.1c-0.2,0-0.3,0-0.5,0c0.2,0.2,0.3,0.3,0.4,0.6
		c0.2,0.3,0.2,0.5,0.4,0.8c0.1,0.2,0.2,0.3,0.3,0.4c0,0,0,0-0.1,0.1c-0.2-0.1-0.4-0.2-0.7-0.3c-0.3-0.1-0.5,0-0.9,0
		c-0.2,0-0.3,0-0.4,0c0.1,0.1,0.1,0.2,0.2,0.3c0.1,0.1,0.1,0.2,0.2,0.3c-0.2,0-0.3,0-0.4,0.1c-0.2,0.1-0.3,0.2-0.5,0.3
		c-0.1,0.1-0.2,0.2-0.3,0.4c0.2,0.1,0.3,0.2,0.5,0.2c0.2,0.1,0.3,0.1,0.5,0.1c0.2,0,0.3,0,0.5,0c-0.1,0.1-0.1,0.2-0.2,0.3
		c0,0.1,0,0.2,0,0.3c0.2-0.1,0.3-0.2,0.5-0.2c0.3-0.1,0.5-0.1,0.8-0.3c0.1-0.1,0.2-0.1,0.3-0.2c0.1,0.2,0.3,0.3,0.5,0.3
		c0.1,0.2,0.2,0.3,0.2,0.6c0,0.3,0.1,0.4,0,0.7c-0.1,0.2-0.1,0.4-0.2,0.6c-0.1,0.3-0.2,0.5-0.4,0.7c-0.2,0.2-0.4,0.3-0.6,0.4
		c-0.3,0.1-0.5,0.2-0.9,0.2c-0.3,0-0.5,0.1-0.8,0c-0.3-0.1-0.5-0.1-0.8-0.3c-0.3-0.2-0.5-0.4-0.6-0.7L46.4,36c0,0.2,0,0.4,0,0.6
		c-0.1,0.3-0.1,0.4-0.3,0.6c-0.1,0.2-0.2,0.3-0.4,0.4c-0.2,0.1-0.3,0.1-0.5,0.1c-0.3,0-0.4,0-0.7-0.1c-0.3-0.1-0.4-0.2-0.7-0.4
		c-0.8-0.5-1.2-0.8-1.8-1.5c0,0,0.8-0.3,1.1-0.3c0.3,0,0.4-0.1,0.7-0.1c-0.1-0.1-0.2-0.2-0.3-0.3c-0.1-0.1-0.2-0.2-0.4-0.3
		c0.2-0.1,0.3-0.1,0.5-0.2c0.2-0.1,0.3-0.2,0.4-0.3c0.1-0.1,0.2-0.2,0.3-0.4c-0.2,0-0.2,0-0.4-0.1c-0.2,0-0.3-0.1-0.5-0.1
		c-0.3,0-0.4,0-0.7,0l0-0.3l0-0.3c-0.1,0.1-0.2,0.2-0.3,0.2c-0.2,0.1-0.4,0.2-0.6,0.3c-0.3,0.2-0.6,0.3-0.8,0.6c0,0,0,0,0,0
		c0-0.2,0-0.3,0-0.6c0-0.2-0.1-0.4-0.2-0.6c-0.1-0.2-0.2-0.3-0.4-0.4L40,32.4l-0.1,0.4c-0.1-0.1-0.1-0.1-0.2-0.2
		c-0.2-0.1-0.3-0.2-0.5-0.2c-0.2,0-0.3,0-0.5,0c-0.2,0-0.4,0.1-0.6,0.2c-0.2,0.1-0.3,0.3-0.4,0.5c-0.1,0.2-0.1,0.3-0.1,0.5
		c0.3,0,0.4,0,0.7,0c0.3,0,0.4,0,0.7,0.2c0.2,0.1,0.2,0.2,0.4,0.3c0.2,0.2,0.3,0.3,0.4,0.5c0.1,0.2,0.2,0.3,0.3,0.4l0.1,0.2
		c-0.3,0.3-0.2,0.8,0.1,1.2c0.3,0.4,0.9,0.4,1.2,0.2c0.3,0.3,0.5,0.5,0.8,0.9c0.3,0.3,4.2,3.8,4.8,5.6C47,43,47,43.1,46.9,43.2
		c-0.1,0.1-0.1,0.2-0.1,0.3c0.1,0.1,0.1,0.2,0.2,0.2c0.1,0.1,0.2,0.2,0.3,0.3c1.7,0.5,2.6,0.7,4.3,1c1.8,0.4,2.8,0.5,4.6,0.7
		c2.8,0.4,4.3,0.4,7.2,0.5c4.1,0,6.4-0.3,10.3-1c2-0.4,3.8-0.6,5.1-1.1c0.2-0.1,0.2-0.2,0.3-0.4c0.1-0.1,0.1-0.2,0.1-0.4
		c0-0.2-0.1-0.3-0.2-0.4c0.4-0.9,1.7-3.2,4.7-5.5c0.4-0.3,0.6-0.5,0.8-0.9c0.3,0.1,0.7,0,1-0.3c0.4-0.4,0.5-0.9,0.2-1.1
		c-0.2-0.2,0-0.2,0-0.2c0.2-0.3,0.3-0.4,0.5-0.7c0.1-0.1,0.1-0.2,0.3-0.3c0.2-0.1,0.4-0.1,0.6-0.2c0.4-0.1,0.6-0.1,1-0.1L88,33.4z"
		/>
	<g>
		<path fill="#8D734A" d="M62.9,29.1l-2.6-2.4c0.3-1,0.4-1.7,0.5-2.6c0.2-2.3-0.1-2.3,0.2-4.3c0.4-2.3,2.5-1.8,2.5-1.8
			c0.2,0.2,1,0.2,1.4,1.8c0.5,2,0.2,2,0.3,4.2c0,0.9,0.2,1.6,0.5,2.6L62.9,29.1L62.9,29.1L62.9,29.1z"/>
		<path fill="#FFFFFF" d="M63.1,18c0.3,0,0.5,0,0.5,0c0.2,0.2,1,0.2,1.4,1.8c0.5,2,0.2,2,0.3,4.2c0,0.9,0.2,1.6,0.5,2.6l-2.8,2.4V29
			v0.1l-2.6-2.4c0.3-1,0.4-1.7,0.5-2.6c0.2-2.3-0.1-2.3,0.2-4.3C61.4,18.2,62.5,18,63.1,18 M63.1,17.4c-0.6,0-2.2,0.2-2.5,2.3
			c-0.2,1.1-0.2,1.6-0.2,2.3c0,0.5,0,1-0.1,2c-0.1,0.9-0.2,1.5-0.5,2.5l-0.1,0.3l0.2,0.2l2.4,2.3v0.9l0.5-0.4l0.5,0.5v-1l2.7-2.3
			l0.3-0.2l-0.1-0.3c-0.3-0.9-0.5-1.5-0.5-2.5c0-0.7,0-1.2,0-1.6c0-0.8,0-1.3-0.3-2.7c-0.4-1.6-1.2-1.9-1.5-2.1c0,0-0.1,0-0.1,0
			l-0.1-0.1l-0.1,0C63.7,17.5,63.4,17.4,63.1,17.4L63.1,17.4z"/>
	</g>
	<g>
		<path fill-rule="evenodd" clip-rule="evenodd" fill="#8D734A" d="M62.1,25.6c0-0.5,0.4-0.9,1-0.9c0.6,0,1,0.4,1,0.9
			c0,0.5-0.4,0.9-1,0.9C62.5,26.5,62.1,26.1,62.1,25.6z"/>
		<path fill="#FFFFFF" d="M63,24.7c0.6,0,1,0.4,1,0.9c0,0.5-0.4,0.9-1,0.9c-0.5,0-1-0.4-1-0.9C62.1,25.1,62.5,24.7,63,24.7 M63,24.2
			c-0.8,0-1.5,0.6-1.5,1.4c0,0.8,0.7,1.4,1.5,1.4c0.9,0,1.5-0.6,1.5-1.4C64.6,24.8,63.9,24.2,63,24.2L63,24.2z"/>
	</g>
	<g>
		<path fill-rule="evenodd" clip-rule="evenodd" fill="#8D734A" d="M62.1,22.8c0-0.5,0.4-0.9,1-0.9c0.6,0,1,0.4,1,0.9
			c0,0.5-0.4,0.9-1,0.9C62.5,23.7,62.1,23.3,62.1,22.8z"/>
		<path fill="#FFFFFF" d="M63,21.9c0.6,0,1,0.4,1,0.9c0,0.5-0.4,0.9-1,0.9c-0.5,0-1-0.4-1-0.9C62.1,22.3,62.5,21.9,63,21.9 M63,21.4
			c-0.8,0-1.5,0.6-1.5,1.4c0,0.8,0.7,1.4,1.5,1.4c0.9,0,1.5-0.6,1.5-1.4C64.6,22,63.9,21.4,63,21.4L63,21.4z"/>
	</g>
	<g>
		<path fill-rule="evenodd" clip-rule="evenodd" fill="#8D734A" d="M62.1,20c0-0.5,0.4-0.9,1-0.9c0.6,0,1,0.4,1,0.9
			c0,0.5-0.4,0.9-1,0.9C62.5,20.8,62.1,20.5,62.1,20z"/>
		<path fill="#FFFFFF" d="M63,19.1c0.6,0,1,0.4,1,0.9c0,0.5-0.4,0.9-1,0.9c-0.5,0-1-0.4-1-0.9C62.1,19.5,62.5,19.1,63,19.1 M63,18.5
			c-0.8,0-1.5,0.6-1.5,1.4c0,0.8,0.7,1.4,1.5,1.4c0.9,0,1.5-0.6,1.5-1.4C64.6,19.2,63.9,18.5,63,18.5L63,18.5z"/>
	</g>
	<path fill="#FFFFFF" d="M63.1,18c0.3,0,0.5,0,0.5,0c0.2,0.2,1,0.2,1.4,1.8c0.5,2,0.2,2,0.3,4.2c0,0.9,0.2,1.6,0.5,2.6l-2.8,2.4V29
		v0.1l-2.6-2.4c0.3-1,0.4-1.7,0.5-2.6c0.2-2.3-0.1-2.3,0.2-4.3C61.4,18.2,62.5,18,63.1,18 M63.1,17.4c-0.6,0-2.2,0.2-2.5,2.3
		c-0.2,1.1-0.2,1.6-0.2,2.3c0,0.5,0,1-0.1,2c-0.1,0.9-0.2,1.5-0.5,2.5l-0.1,0.3l0.2,0.2l2.4,2.3v0.9l0.5-0.4l0.5,0.5v-1l2.7-2.3
		l0.3-0.2l-0.1-0.3c-0.3-0.9-0.5-1.5-0.5-2.5c0-0.7,0-1.2,0-1.6c0-0.8,0-1.3-0.3-2.7c-0.4-1.6-1.2-1.9-1.5-2.1c0,0-0.1,0-0.1,0
		l-0.1-0.1l-0.1,0C63.7,17.5,63.4,17.4,63.1,17.4L63.1,17.4z"/>
	<path fill="#FFFFFF" d="M63,26.6l-0.4,0.3c-0.2,0.2-0.3,0.4-0.5,0.6c-0.1,0.2-0.2,0.3-0.3,0.6c-0.1,0-0.2-0.1-0.4-0.1
		c-0.1,0-0.1,0-0.2,0l-0.7,0.1l0.3,0.7l0.3,0.6c0,0.2,0.1,0.3,0.1,0.5c0,0,0,0-0.1,0c-0.2,0-0.3-0.1-0.5-0.1c-0.2,0-0.3-0.1-0.4-0.1
		l-0.1,0l-0.8-0.3l0.1,0.8c0,0.1,0,0.2,0,0.2c0,0-0.1,0-0.1,0c-0.3,0.1-0.5,0.2-0.8,0.4l0,0l0,0c-0.2,0.1-0.3,0.3-0.4,0.4L58,31.5
		l0.3,0.3c0.2,0.2,0.3,0.3,0.6,0.5c0.2,0.2,0.4,0.2,0.6,0.3c0,0,0.1,0,0.1,0c0,0,0,0.1,0,0.1l-0.1,0.7l0.7-0.1l0.5-0.1
		c0.5-0.1,0.7-0.2,0.9-0.3c0.1,0,0.2-0.1,0.3-0.1c0,0,0.1,0.1,0.1,0.1c0,0.1,0,0.2,0,0.4c0,0.3,0,0.5-0.2,0.7
		c-0.1,0.2-0.2,0.3-0.4,0.5c-0.2,0.2-0.3,0.3-0.6,0.4c-0.3,0.1-0.5,0.2-0.8,0.2H60c-0.2,0-0.4,0-0.6-0.1c-0.2-0.1-0.3-0.2-0.5-0.3
		l-0.1-0.1l-0.1-0.1c-0.2-0.2-0.3-0.2-0.4-0.4c-0.1-0.2-0.1-0.2-0.2-0.4L58,33.4l-0.5,0.1l-0.4,0l-0.5,0.1V34c0,0.2,0,0.2-0.1,0.4
		c-0.1,0.2-0.1,0.3-0.2,0.4c-0.2,0.2-0.2,0.3-0.5,0.4c-0.3,0.2-0.4,0.2-0.7,0.3c-0.1,0-0.3,0-0.4,0c-0.1,0-0.2,0-0.4,0
		c-0.3,0-0.5-0.1-0.6-0.2c-0.2-0.1-0.3-0.2-0.5-0.4l0,0l0,0c-0.2-0.2-0.3-0.2-0.3-0.4l0,0l0,0c-0.1-0.2-0.1-0.2-0.2-0.4
		c0-0.2,0-0.3,0-0.5c0,0,0.1,0,0.1,0c0.2,0,0.4,0,0.6,0c0.1,0,0.1,0,0.2,0c0.1,0,0.2,0,0.3,0s0.2,0,0.3,0l1,0l-0.6-0.8
		c0.2-0.1,0.4-0.2,0.6-0.4c0.1-0.1,0.2-0.3,0.3-0.4l0-0.1l0.3-0.6l-0.6-0.2c-0.1-0.1-0.2-0.1-0.4-0.1c-0.1,0-0.2-0.1-0.2-0.1
		c-0.1-0.1-0.3-0.1-0.4-0.2v-0.1v-0.8l-0.7,0.3l-0.6,0.2c-0.1,0-0.2,0.1-0.2,0.1c0-0.1,0-0.2,0-0.2c0-0.2,0.1-0.3,0.1-0.4l0.4-0.8
		l-0.9,0.1c-0.2,0-0.3,0-0.5,0.1c-0.1-0.2-0.2-0.3-0.3-0.4c-0.2-0.2-0.3-0.3-0.6-0.5l-0.4-0.3l-0.3,0.4c-0.2,0.2-0.3,0.4-0.4,0.6
		c-0.1,0.2-0.1,0.3-0.1,0.5c-0.1,0-0.1,0-0.2,0c0,0-0.1,0-0.1,0l-1,0l0.6,0.8l0.1,0.1c0.1,0.2,0.2,0.3,0.3,0.4l0,0l0,0
		c0,0,0.1,0.1,0.1,0.1h-0.1l-0.1,0c-0.1,0-0.1,0-0.2,0c-0.1,0-0.2,0-0.2,0c-0.1,0-0.1,0-0.2,0L47.8,31l0.4,0.9c0,0,0,0.1,0,0.1
		c-0.2,0.1-0.3,0.2-0.5,0.3c-0.2,0.2-0.3,0.3-0.4,0.5L47,33.3l0.5,0.3c0.2,0.1,0.3,0.2,0.6,0.3c0.2,0.1,0.3,0.1,0.5,0.1
		c0,0.1,0,0.2,0.1,0.3l0.2,0.6l0.6-0.3c0.2-0.1,0.2-0.1,0.4-0.2c0.1-0.1,0.2-0.1,0.3-0.1c0.1,0,0.3-0.1,0.5-0.2c0,0,0.1,0.1,0.1,0.1
		c0,0.1,0.1,0.1,0.1,0.3c0,0.2,0,0.3,0,0.4c0,0.1-0.1,0.2-0.2,0.4l0,0l0,0c-0.1,0.3-0.2,0.4-0.3,0.5c-0.2,0.2-0.3,0.2-0.5,0.4
		c-0.2,0.1-0.4,0.1-0.7,0.2l-0.1,0c-0.1,0-0.2,0-0.3,0c-0.1,0-0.2,0-0.2,0c-0.3-0.1-0.4-0.1-0.6-0.2l0,0l0,0
		c-0.2-0.1-0.3-0.2-0.4-0.5l-0.2-0.4l-0.4,0.1l-0.5,0.1l-0.5,0.1l0,0.5c0,0.2,0,0.3,0,0.4c0,0.2-0.1,0.3-0.2,0.4l0,0l0,0
		c-0.1,0.1-0.1,0.1-0.2,0.2c-0.1,0-0.1,0-0.2,0c-0.1,0-0.1,0-0.2,0l0,0c-0.2,0-0.3,0-0.5-0.1c-0.1,0-0.2-0.1-0.4-0.2
		c-0.1,0-0.1-0.1-0.2-0.1c-0.4-0.3-0.8-0.5-1.1-0.8c0.1,0,0.1,0,0.2,0c0.3,0,0.4-0.1,0.7-0.1l0.8-0.2L44.2,35c0,0-0.1-0.1-0.1-0.1
		c0.1-0.1,0.2-0.2,0.3-0.3c0.2-0.2,0.2-0.3,0.3-0.6l0.3-0.6l-0.7-0.1c-0.1,0-0.2,0-0.3-0.1l0,0l0,0c-0.1,0-0.1,0-0.2,0
		c-0.1,0-0.2-0.1-0.4-0.1c-0.1,0-0.1,0-0.2,0l0-0.1l-0.1-1.1l-0.8,0.8c-0.1,0.1-0.1,0.1-0.2,0.2c-0.1,0.1-0.1,0.1-0.2,0.1
		c-0.1,0-0.2,0.1-0.4,0.2l-0.1,0c0-0.1-0.1-0.3-0.2-0.4c-0.2-0.3-0.3-0.5-0.7-0.7l0,0l0,0l-0.4-0.1l-0.6-0.2l-0.1,0.3
		c-0.1,0-0.2,0-0.3-0.1l0,0l0,0c-0.1,0-0.2,0-0.3,0c-0.1,0-0.2,0-0.3,0l0,0l0,0c-0.3,0.1-0.5,0.1-0.8,0.3c-0.3,0.2-0.4,0.4-0.6,0.7
		c-0.1,0.3-0.2,0.5-0.1,0.8l0.1,0.6l0.6-0.1c0.1,0,0.2,0,0.3,0c0.1,0,0.2,0,0.2,0c0.3,0,0.4,0,0.5,0.1c0.1,0,0.1,0.1,0.2,0.2
		c0.2,0.2,0.2,0.3,0.4,0.5c0.1,0.1,0.1,0.2,0.2,0.3c-0.1,0.1-0.1,0.3-0.1,0.4c0,0.4,0.2,0.8,0.5,1.1c0.3,0.3,0.7,0.5,1.1,0.5
		c0.1,0,0.2,0,0.3,0c0.2,0.2,0.3,0.4,0.5,0.6c0,0,0.1,0.1,0.3,0.2c2.9,2.7,4,4.1,4.3,4.9c0,0,0,0,0,0l0,0.1l0,0l0,0
		c-0.1,0.2-0.1,0.3-0.2,0.4l-0.1,0.3l0.2,0.2c0.1,0.1,0.1,0.2,0.2,0.3c0.1,0.2,0.2,0.3,0.4,0.4l0.1,0.1l0.1,0
		c1.8,0.5,2.7,0.7,4.4,1.1c1.5,0.3,2.4,0.4,3.8,0.6l0.9,0.1c2.8,0.4,4.3,0.4,7.2,0.5c0.2,0,0.5,0,0.7,0c3.6,0,6-0.3,9.8-1
		c0.4-0.1,0.9-0.2,1.3-0.2c1.5-0.3,2.8-0.5,3.9-0.9c0.4-0.1,0.5-0.4,0.5-0.6l0-0.1l0,0l0,0c0.1-0.1,0.1-0.4,0.1-0.7
		c0-0.1-0.1-0.2-0.1-0.3c0.5-1,1.8-3,4.4-5c0.4-0.3,0.6-0.5,0.8-0.8c0.4,0,0.8-0.2,1.1-0.5c0.3-0.3,0.5-0.7,0.5-1.1
		c0-0.2,0-0.4-0.1-0.5c0.1-0.2,0.2-0.3,0.3-0.4c0,0,0.1-0.1,0.1-0.1c0-0.1,0-0.1,0.1-0.1c0.1,0,0.1-0.1,0.2-0.1c0.1,0,0.1,0,0.2,0
		c0.3-0.1,0.5-0.1,0.7-0.1c0.1,0,0.1,0,0.2,0l0.6,0l-0.1-0.6l0-0.4l0,0l0,0c0-0.3-0.1-0.4-0.3-0.6c-0.2-0.3-0.4-0.4-0.8-0.6
		c-0.2-0.1-0.3-0.1-0.5-0.1c0,0-0.1,0-0.2,0c-0.2,0-0.3,0-0.5,0.1l0-0.4l-0.7,0.4l-0.4,0.2l-0.1,0l0,0c-0.2,0.2-0.3,0.3-0.5,0.6
		c-0.1,0.1-0.1,0.2-0.1,0.3c-0.1,0-0.2-0.1-0.3-0.1c-0.1,0-0.2-0.1-0.3-0.2c-0.2-0.1-0.3-0.2-0.5-0.3l-0.6-0.4L82.5,33
		c0,0.1-0.1,0.2-0.1,0.3c-0.2,0-0.3,0-0.4,0c-0.1,0-0.1,0-0.2,0c-0.3,0-0.4,0.1-0.6,0.1l-0.6,0.1l0.3,0.6c0.1,0.2,0.2,0.3,0.3,0.5
		c0.1,0.1,0.2,0.3,0.4,0.4c0,0-0.1,0.1-0.1,0.1l-0.4,0.7l0.8,0.1c0.5,0.1,0.8,0.1,1.2,0.1l0,0c-0.3,0.3-0.4,0.5-0.8,0.7
		C82,37,81.9,37,81.7,37.1c-0.3,0.1-0.4,0.2-0.7,0.2l0,0l0,0c-0.1,0-0.2,0-0.2,0c0,0-0.1,0-0.2,0c-0.1,0-0.2-0.1-0.2-0.1
		c0,0,0-0.1-0.1-0.2l0-0.1l0,0l0,0c-0.1-0.2-0.1-0.2-0.1-0.3c0-0.2,0-0.2,0-0.2l0.3-0.5l-0.5-0.2l-0.6-0.2L79,35.3l-0.2,0.4
		c-0.1,0.2-0.2,0.2-0.3,0.4l-0.1,0.1c-0.1,0.1-0.2,0.1-0.2,0.2c-0.2,0.1-0.4,0.2-0.6,0.2c-0.2,0-0.3,0-0.4,0c-0.1,0-0.2,0-0.4,0
		c-0.2,0-0.3-0.1-0.6-0.2c-0.2-0.1-0.3-0.2-0.5-0.4c-0.2-0.2-0.3-0.3-0.4-0.6c-0.1-0.2-0.1-0.4-0.1-0.6l0-0.3l0-0.1
		c0.1,0,0.1-0.1,0.2-0.1c0.1,0.1,0.3,0.1,0.4,0.2l0.2,0.1c0.2,0.1,0.3,0.1,0.5,0.2l0.2,0.1l0.7,0.3v-0.8c0,0,0-0.1,0-0.1
		c0.2,0,0.3-0.1,0.5-0.1c0.3-0.1,0.4-0.2,0.6-0.3l0.5-0.3l-0.4-0.5c-0.1-0.1-0.2-0.2-0.3-0.3l-0.1-0.1c-0.1-0.1-0.3-0.3-0.5-0.4
		c0,0,0-0.1,0.1-0.1l0.3-0.8h-0.8c-0.2,0-0.4,0-0.6,0h0c-0.1,0-0.2,0-0.3,0c0,0,0,0-0.1,0c0-0.1,0-0.1,0.1-0.2l0,0
		c0.1-0.2,0.2-0.3,0.3-0.5l0.5-0.7l-0.8-0.2c-0.1,0-0.2,0-0.4,0c0,0-0.1,0-0.1,0c0-0.2-0.1-0.3-0.1-0.5l0-0.1l0,0l0,0L76,29
		c-0.1-0.1-0.1-0.2-0.2-0.4l-0.4-0.5l-0.4,0.5l-0.1,0.1c-0.1,0.1-0.1,0.1-0.2,0.2c-0.2,0.2-0.3,0.3-0.4,0.5
		c-0.2-0.1-0.3-0.1-0.5-0.1l-0.7-0.1l0.1,0.7c0,0.2,0.1,0.3,0.1,0.4l0,0.1c0,0.1,0,0.2,0,0.3c-0.1,0-0.2-0.1-0.3-0.1
		c-0.1,0-0.1-0.1-0.2-0.1c-0.1-0.1-0.2-0.1-0.4-0.2l-0.8-0.3l0.1,0.8c0,0,0,0.1,0,0.1c0,0,0,0,0,0c-0.3,0-0.5,0.2-0.6,0.2l-0.1,0
		c-0.1,0.1-0.2,0.1-0.3,0.2l-0.5,0.3l0.3,0.4c0.1,0.2,0.2,0.3,0.3,0.4c0.2,0.2,0.3,0.3,0.5,0.4c0,0,0,0.1,0,0.1L71,33.9l0.8-0.1
		c0.2,0,0.3,0,0.5,0l0.1,0c0.1,0,0.2,0,0.2,0c0.1,0,0.2,0,0.3,0c0.1,0,0.2,0,0.3,0c0,0,0.1,0,0.1,0l0,0.1l-0.1,0.4l-0.1,0.4
		c-0.1,0.1-0.2,0.2-0.3,0.3c-0.2,0.2-0.3,0.3-0.5,0.4c-0.2,0.1-0.3,0.2-0.6,0.2c-0.2,0-0.3,0-0.4,0c-0.1,0-0.2,0-0.3,0
		c-0.3,0-0.4-0.1-0.7-0.2c-0.2-0.1-0.3-0.2-0.5-0.4c-0.2-0.2-0.2-0.2-0.3-0.4c0,0,0-0.1-0.1-0.1c0,0,0,0,0-0.1c0,0,0,0,0,0l0.3-0.6
		l-0.7-0.1l-0.5-0.1l-0.5-0.1l-0.2,0.4c0,0.1-0.1,0.2-0.2,0.3c-0.1,0.2-0.1,0.2-0.3,0.4c-0.2,0.2-0.2,0.3-0.4,0.4
		c-0.2,0.1-0.3,0.2-0.5,0.2c-0.2,0.1-0.3,0.1-0.5,0.1H66c-0.3,0-0.4,0-0.6-0.1C65.2,35,65.1,35,65,34.9l-0.1,0
		c-0.2-0.1-0.3-0.2-0.5-0.4l-0.1-0.1c-0.1-0.1-0.2-0.2-0.2-0.3c0-0.1,0-0.1,0-0.3l0-0.2c0-0.1,0-0.1,0-0.2c0-0.1,0-0.2,0-0.3
		c0,0,0,0,0-0.1c0,0,0.1,0,0.1-0.1c0,0,0,0,0.1,0c0.2,0,0.3,0.1,0.4,0.1c0.2,0.1,0.4,0.2,0.8,0.2l0,0h0l0.5,0l0.7,0l-0.2-0.7
		c0,0,0,0,0-0.1c0,0,0-0.1,0-0.1c0,0,0,0,0,0l0.2-0.1c0.1,0,0.3-0.1,0.4-0.2c0.2-0.1,0.4-0.3,0.6-0.5l0.4-0.5L67.7,31
		c-0.1-0.1-0.2-0.1-0.2-0.1l-0.1,0c-0.1,0-0.1-0.1-0.2-0.1c-0.2-0.1-0.3-0.2-0.6-0.3c0,0,0,0-0.1,0c0,0,0,0,0,0l0-0.1l0.4-0.9
		l-1,0.2c-0.1,0-0.2,0.1-0.3,0.1c-0.1,0-0.1,0-0.2,0.1c-0.2,0-0.4,0-0.5,0.1c0-0.1,0.1-0.2,0.1-0.4c0.1-0.2,0.1-0.4,0.2-0.6l0.3-0.7
		L64.8,28c-0.1,0-0.1,0-0.2,0c-0.1,0-0.3,0-0.4,0.1c-0.1-0.3-0.2-0.5-0.4-0.7c-0.1-0.2-0.2-0.3-0.4-0.5L63,26.6L63,26.6z"/>
	<path fill="#8D734A" d="M63.1,27.3c0.2,0.1,0.2,0.2,0.4,0.4c0.2,0.2,0.2,0.4,0.3,0.6c0.1,0.2,0.1,0.4,0.1,0.6
		c0.1-0.1,0.3-0.2,0.5-0.3c0.1,0,0.2-0.1,0.3-0.1c0,0,0.1,0,0.1,0c-0.1,0.3-0.2,0.4-0.3,0.6c-0.2,0.4-0.2,0.7-0.4,1.2
		c-0.1,0.2-0.2,0.4-0.4,0.5l0,0c0.2-0.2,0.3-0.3,0.6-0.4c0.4-0.2,0.7-0.3,1.2-0.3c0.3,0,0.4-0.1,0.6-0.1c-0.1,0.2-0.1,0.3-0.2,0.4
		c-0.1,0.1-0.1,0.2-0.2,0.4c0.1,0,0.2,0,0.3,0c0.1,0,0.3,0,0.4,0.1c0.3,0.1,0.4,0.2,0.7,0.4c0.1,0.1,0.2,0.1,0.3,0.2
		c-0.2,0.2-0.3,0.3-0.5,0.4c-0.2,0.1-0.3,0.1-0.5,0.2c-0.2,0.1-0.3,0.1-0.6,0.2c0.1,0.1,0.2,0.4,0.2,0.4c0,0,0,0,0,0c0,0,0,0,0,0
		c0,0,0.1,0.2,0.1,0.3l-0.5,0c-0.6-0.1-0.7-0.2-1.2-0.4c-0.1,0-0.2-0.1-0.4-0.2c-0.1,0.2-0.2,0.3-0.4,0.5c0,0.1,0,0.2-0.1,0.3
		c0,0.2,0,0.4,0,0.6c0,0.2,0,0.4,0.1,0.6c0.1,0.3,0.2,0.4,0.4,0.6c0.2,0.2,0.3,0.3,0.5,0.5c0.2,0.2,0.3,0.3,0.6,0.4
		c0.3,0.1,0.5,0.1,0.8,0.2c0,0,0.1,0,0.1,0c0.2,0,0.4,0,0.7-0.1c0.3-0.1,0.4-0.2,0.6-0.3c0.2-0.1,0.3-0.3,0.5-0.4
		c0.2-0.2,0.2-0.3,0.3-0.5c0.1-0.2,0.1-0.3,0.2-0.4l0.5,0.1c-0.1,0.1-0.1,0.2-0.1,0.3c0,0.2,0.1,0.3,0.2,0.5
		c0.1,0.2,0.2,0.4,0.4,0.5c0.2,0.2,0.4,0.4,0.7,0.5c0.3,0.1,0.5,0.2,0.9,0.2c0.1,0,0.2,0,0.3,0c0.2,0,0.3,0,0.5-0.1
		c0.3-0.1,0.5-0.1,0.8-0.3c0.3-0.1,0.4-0.3,0.6-0.5c0.1-0.1,0.2-0.2,0.4-0.4l0.2-0.5l0.1-0.5l0.1-0.4c-0.1-0.1-0.2-0.3-0.3-0.4
		c-0.1,0.1-0.3,0.1-0.5,0.1c-0.1,0-0.1,0-0.2,0c-0.2,0-0.3,0-0.5,0c-0.3,0-0.4,0-0.6,0c0-0.1,0.1-0.2,0.2-0.3
		c0.1-0.1,0.1-0.1,0.2-0.2c-0.2,0-0.3-0.1-0.4-0.1c-0.2-0.1-0.3-0.2-0.5-0.4c-0.1-0.1-0.2-0.2-0.3-0.3c0.1-0.1,0.2-0.1,0.3-0.2
		c0.2-0.1,0.3-0.2,0.6-0.2c0.1,0,0.2,0,0.3,0c0.1,0,0.2,0,0.3,0.1c0-0.1,0-0.2-0.1-0.3c0-0.1,0-0.2-0.1-0.4c0.2,0.1,0.3,0.2,0.5,0.2
		c0.3,0.2,0.6,0.2,0.9,0.4c0.2,0.1,0.3,0.2,0.4,0.4c0,0,0,0,0.1,0c-0.1-0.3-0.2-0.4-0.3-0.7c-0.1-0.3,0-0.5-0.1-0.8
		c0-0.2-0.1-0.3-0.1-0.5c0.2,0,0.3,0.1,0.4,0.1c0.1,0.1,0.2,0.1,0.3,0.3c0.1-0.2,0.1-0.3,0.2-0.5c0.1-0.2,0.2-0.3,0.4-0.5
		c0.1-0.1,0.2-0.2,0.3-0.3c0.1,0.2,0.2,0.3,0.3,0.4c0.1,0.2,0.1,0.3,0.2,0.6c0,0.2,0,0.3,0,0.6c0.1-0.1,0.3-0.2,0.5-0.2
		c0.1,0,0.1,0,0.2,0c0.1,0,0.2,0,0.3,0c-0.2,0.2-0.3,0.4-0.4,0.6c-0.2,0.3-0.2,0.5-0.4,0.8c-0.1,0.1-0.2,0.2-0.3,0.4c0,0,0,0,0,0
		c0.1-0.1,0.3-0.1,0.5-0.2c0.1,0,0.2,0,0.4,0c0.2,0,0.3,0,0.5,0c0,0,0,0,0.1,0c0.2,0,0.4,0,0.6,0c-0.1,0.1-0.1,0.2-0.2,0.3
		c-0.1,0.1-0.1,0.1-0.2,0.2c0.2,0.1,0.3,0.1,0.6,0.2c0.2,0.1,0.3,0.2,0.5,0.4c0.1,0.1,0.2,0.2,0.3,0.3c-0.2,0.1-0.3,0.2-0.5,0.2
		c-0.2,0.1-0.4,0.1-0.6,0.1c0,0-0.1,0-0.1,0c-0.1,0-0.2,0-0.3,0c0.1,0.1,0.1,0.2,0.2,0.3c0,0.1,0.1,0.2,0.1,0.3
		c-0.3-0.1-0.4-0.2-0.7-0.3c-0.2-0.1-0.4-0.2-0.6-0.3c-0.1,0-0.1-0.1-0.2-0.1c-0.1,0.2-0.3,0.3-0.6,0.4l-0.1,0.3l-0.1,0.4
		c0,0.3,0,0.6,0.1,0.9c0.1,0.3,0.2,0.5,0.5,0.7c0.2,0.2,0.3,0.3,0.6,0.5c0.3,0.2,0.4,0.2,0.7,0.3c0.2,0,0.3,0.1,0.5,0.1
		c0.1,0,0.3,0,0.5-0.1c0.3-0.1,0.5-0.1,0.7-0.3c0.2-0.1,0.3-0.2,0.5-0.4c0.2-0.2,0.2-0.3,0.4-0.5l0.6,0.2c-0.1,0.1-0.1,0.2-0.1,0.4
		c0,0.2,0,0.4,0.1,0.6c0.1,0.2,0.1,0.3,0.2,0.4c0.1,0.1,0.2,0.2,0.4,0.3c0.1,0,0.2,0.1,0.4,0.1c0.1,0,0.2,0,0.4,0
		c0.3,0,0.5-0.1,0.8-0.2c0.3-0.1,0.4-0.2,0.7-0.4c0.4-0.3,0.6-0.5,0.9-0.8l0.6-0.7l0,0.1c0-0.1,0.1-0.2,0.1-0.2c-0.1,0-0.2,0-0.3,0
		c-0.1,0-0.3,0-0.4,0c-0.6,0-0.9-0.1-1.5-0.2c0.1-0.1,0.1-0.2,0.2-0.3c0.1-0.1,0.2-0.1,0.3-0.2c-0.2-0.1-0.3-0.1-0.4-0.2
		c-0.2-0.1-0.3-0.2-0.5-0.4c-0.1-0.1-0.2-0.2-0.2-0.4c0.2,0,0.3-0.1,0.5-0.1c0.2,0,0.3-0.1,0.6-0.1c0.2,0,0.3,0,0.5,0
		c0-0.1,0-0.2,0-0.3c0-0.1,0-0.2,0.1-0.3c0.2,0.1,0.3,0.2,0.5,0.3c0.3,0.2,0.6,0.2,0.9,0.5c0.1,0.1,0.2,0.3,0.3,0.4l0.1-0.5
		c0-0.3,0-0.4,0.2-0.7c0.1-0.2,0.2-0.3,0.4-0.5l0.4-0.2l0,0.4c0.1-0.1,0.2-0.2,0.4-0.3c0.2-0.1,0.4-0.1,0.6-0.1c0,0,0.1,0,0.1,0
		c0.1,0,0.2,0,0.4,0c0.3,0.1,0.4,0.2,0.6,0.4c0.1,0.1,0.1,0.2,0.2,0.4l0,0.4c-0.1,0-0.1,0-0.2,0c-0.3,0-0.5,0-0.8,0.1
		c-0.2,0.1-0.4,0.1-0.6,0.2c-0.1,0.1-0.2,0.2-0.3,0.3c-0.2,0.3-0.3,0.4-0.5,0.7c0,0,0,0,0,0c-0.1,0-0.2,0,0,0.2
		c0.3,0.3,0.2,0.8-0.2,1.1c-0.2,0.2-0.5,0.3-0.8,0.3c-0.1,0-0.2,0-0.2,0c-0.3,0.4-0.4,0.6-0.8,0.9c-3,2.2-4.3,4.6-4.7,5.5
		c0.1,0.1,0.2,0.2,0.2,0.4c0,0.1,0,0.2-0.1,0.4c-0.1,0.2-0.1,0.3-0.3,0.4c-1.3,0.5-3.1,0.7-5.1,1.1c-3.7,0.7-6,1-9.7,1
		c-0.2,0-0.5,0-0.7,0c-2.8,0-4.4-0.1-7.2-0.5c-1.8-0.3-2.8-0.4-4.6-0.7c-1.7-0.3-2.7-0.6-4.3-1c-0.1-0.1-0.2-0.2-0.3-0.3
		c-0.1-0.1-0.1-0.1-0.2-0.2c0-0.1,0.1-0.2,0.1-0.3c0.1-0.1,0.1-0.2,0.2-0.3c-0.5-1.8-4.5-5.3-4.8-5.6c-0.3-0.3-0.5-0.5-0.8-0.9
		c-0.1,0.1-0.3,0.2-0.5,0.2c-0.3,0-0.5-0.1-0.7-0.3c-0.4-0.4-0.4-0.9-0.1-1.2l-0.1-0.2c-0.1-0.2-0.2-0.3-0.3-0.4
		c-0.1-0.2-0.2-0.3-0.4-0.5c-0.1-0.1-0.2-0.2-0.4-0.3c-0.2-0.1-0.4-0.1-0.7-0.2c-0.1,0-0.2,0-0.3,0c-0.1,0-0.2,0-0.4,0
		c0-0.2,0-0.3,0.1-0.5c0.1-0.2,0.2-0.3,0.4-0.5c0.2-0.1,0.3-0.2,0.6-0.2c0.1,0,0.2,0,0.2,0c0.1,0,0.1,0,0.2,0c0.2,0,0.4,0.1,0.5,0.2
		c0.1,0.1,0.1,0.1,0.2,0.2l0.1-0.4l0.4,0.1c0.2,0.1,0.3,0.2,0.4,0.4c0.1,0.2,0.2,0.4,0.2,0.6c0,0.2,0,0.4,0,0.6c0,0,0,0,0,0
		c0.2-0.3,0.4-0.4,0.8-0.6c0.2-0.1,0.4-0.2,0.6-0.3c0.1-0.1,0.2-0.1,0.3-0.2l0,0.3l0,0.3c0.2,0,0.3-0.1,0.5-0.1c0.1,0,0.1,0,0.2,0
		c0.2,0,0.3,0.1,0.5,0.1c0.1,0,0.2,0.1,0.4,0.1c-0.1,0.2-0.1,0.3-0.3,0.4c-0.1,0.2-0.2,0.2-0.4,0.3c-0.2,0.1-0.3,0.2-0.5,0.2
		c0.2,0.1,0.2,0.2,0.4,0.3c0.1,0.1,0.2,0.2,0.3,0.3c-0.3,0.1-0.4,0.1-0.7,0.1c-0.3,0-1.1,0.3-1.1,0.3c0.6,0.7,1,1,1.8,1.5
		c0.3,0.2,0.4,0.3,0.7,0.4c0.2,0.1,0.4,0.1,0.6,0.1c0,0,0,0,0.1,0c0.2,0,0.4,0,0.5-0.1c0.2-0.1,0.3-0.2,0.4-0.4
		c0.2-0.2,0.2-0.4,0.3-0.6c0.1-0.2,0.1-0.4,0-0.6l0.5-0.1c0.2,0.3,0.3,0.5,0.6,0.7c0.3,0.2,0.4,0.3,0.8,0.3c0.1,0,0.2,0,0.3,0
		c0.2,0,0.3,0,0.5,0c0.3,0,0.6-0.1,0.9-0.2c0.3-0.1,0.4-0.2,0.6-0.4c0.2-0.2,0.3-0.4,0.4-0.7c0.1-0.2,0.2-0.3,0.2-0.6
		c0-0.3,0-0.4,0-0.7c-0.1-0.2-0.1-0.4-0.2-0.6c-0.2-0.1-0.3-0.2-0.5-0.3c-0.1,0.1-0.2,0.1-0.3,0.2c-0.3,0.1-0.5,0.1-0.8,0.3
		c-0.2,0.1-0.3,0.1-0.5,0.2c0-0.1,0-0.2,0-0.3c0-0.1,0.1-0.2,0.2-0.3c-0.1,0-0.2,0-0.3,0c-0.1,0-0.2,0-0.3,0c-0.2,0-0.3-0.1-0.5-0.1
		c-0.2-0.1-0.3-0.1-0.5-0.2c0.1-0.2,0.2-0.2,0.3-0.4c0.2-0.2,0.3-0.2,0.5-0.3c0.2-0.1,0.2-0.1,0.4-0.1c-0.1-0.1-0.1-0.2-0.2-0.3
		c-0.1-0.1-0.1-0.2-0.2-0.3c0.2,0,0.3,0,0.4,0c0.1,0,0.2,0,0.3,0c0.1,0,0.2,0,0.2,0c0.1,0,0.2,0,0.4,0c0.3,0.1,0.4,0.1,0.7,0.3
		c0,0,0,0,0.1-0.1c-0.1-0.1-0.2-0.3-0.3-0.4c-0.2-0.3-0.2-0.5-0.4-0.8c-0.1-0.2-0.2-0.4-0.4-0.6c0,0,0.1,0,0.1,0c0.1,0,0.2,0,0.3,0
		c0.2,0,0.3,0.1,0.4,0.1c0-0.2,0-0.3,0-0.5c0-0.2,0.1-0.4,0.1-0.6c0.1-0.2,0.1-0.3,0.3-0.5c0.2,0.1,0.3,0.2,0.5,0.4
		c0.1,0.1,0.2,0.2,0.3,0.4c0.1,0.2,0.2,0.3,0.2,0.5c0.1-0.1,0.2-0.2,0.4-0.3c0.2-0.1,0.2-0.1,0.4-0.1c-0.1,0.2-0.1,0.3-0.2,0.6
		c-0.1,0.3,0,0.4,0,0.7c-0.1,0.3-0.1,0.5-0.3,0.8l-0.1,0c0.1,0,0.1,0.1,0.2,0.1l0-0.1c0.1-0.1,0.2-0.2,0.3-0.3
		c0.3-0.2,0.5-0.3,0.8-0.4l0.6-0.2v0.3l-0.1,0.3c0.1,0,0.2,0,0.3,0c0,0,0.1,0,0.1,0c0.3,0,0.4,0.1,0.7,0.2c0.2,0.1,0.3,0.1,0.4,0.2
		c-0.1,0.1-0.1,0.2-0.2,0.3c-0.2,0.2-0.3,0.2-0.6,0.4c-0.2,0.1-0.3,0.1-0.5,0.2c0.1,0.1,0.1,0.2,0.2,0.3c0.1,0.1,0.1,0.2,0.2,0.2
		c-0.1,0-0.2,0-0.3,0c-0.1,0-0.2,0-0.3,0c-0.3,0-0.5,0-0.7,0c-0.2,0-0.4-0.1-0.6-0.2c-0.1,0.2-0.2,0.4-0.3,0.5l0.2,0
		c-0.1,0.3-0.1,0.5,0,0.8c0,0.2,0.1,0.3,0.2,0.5c0.1,0.3,0.3,0.4,0.5,0.6c0.2,0.2,0.3,0.3,0.6,0.5c0.3,0.1,0.5,0.2,0.8,0.2
		c0.2,0,0.3,0,0.5,0c0.1,0,0.3,0,0.5-0.1c0.4-0.1,0.6-0.2,0.9-0.4c0.3-0.2,0.4-0.3,0.6-0.5c0.2-0.2,0.2-0.3,0.3-0.6
		c0.1-0.2,0.1-0.3,0.1-0.5l0.4,0c0,0.2,0.1,0.3,0.2,0.5c0.2,0.3,0.3,0.4,0.6,0.6c0.3,0.2,0.4,0.4,0.8,0.5c0.3,0.1,0.5,0.1,0.8,0.2
		c0,0,0,0,0.1,0c0.4,0,0.6-0.1,1-0.2c0.3-0.1,0.5-0.3,0.8-0.5c0.2-0.2,0.3-0.4,0.5-0.7c0.2-0.4,0.2-0.6,0.2-1c0-0.3,0-0.4-0.1-0.7
		c-0.2-0.1-0.3-0.3-0.4-0.5c-0.1,0.1-0.2,0.1-0.3,0.2c-0.5,0.2-0.6,0.2-1.2,0.4L60,32.8c0-0.1,0-0.1,0.1-0.2c0-0.1,0-0.2,0.1-0.4
		c-0.2,0-0.4-0.1-0.5-0.1c-0.2-0.1-0.3-0.1-0.5-0.2c-0.2-0.1-0.3-0.2-0.4-0.4c0.1-0.1,0.1-0.2,0.2-0.3c0.3-0.2,0.4-0.3,0.7-0.3
		c0.3-0.1,0.4-0.1,0.7-0.1c-0.1-0.1-0.1-0.2-0.2-0.3C60.1,30.3,60,30.2,60,30c0.2,0.1,0.3,0.1,0.5,0.2c0.5,0.2,0.7,0.2,1.2,0.4
		c0.3,0.1,0.4,0.2,0.6,0.4v0c0,0,0,0,0.1-0.1h-0.1c-0.1-0.2-0.3-0.3-0.4-0.5c-0.2-0.5-0.2-0.6-0.4-1.2l-0.3-0.7c0,0,0.1,0,0.1,0
		c0.1,0,0.2,0,0.4,0.1c0.2,0.1,0.3,0.1,0.5,0.3c0-0.2,0-0.4,0.1-0.6c0.1-0.2,0.2-0.3,0.3-0.5C62.8,27.6,62.9,27.5,63.1,27.3"/>
	<path fill-rule="evenodd" clip-rule="evenodd" fill="#8D734A" d="M56.6,33.4c0-0.5,0.2-0.9,0.6-0.9c0.3,0,0.6,0.4,0.7,0.8
		c0,0.5-0.2,0.9-0.6,0.9C57,34.3,56.7,33.9,56.6,33.4z"/>
	<path fill="#FFFFFF" d="M57.2,32.5c0.3,0,0.6,0.4,0.6,0.8c0,0.5-0.2,0.9-0.6,0.9c0,0,0,0,0,0c-0.3,0-0.6-0.4-0.6-0.8
		C56.6,33,56.9,32.6,57.2,32.5C57.2,32.5,57.2,32.5,57.2,32.5 M57.2,32L57.2,32L57.2,32c-0.7,0-1.1,0.7-1.1,1.5
		c0.1,0.8,0.6,1.3,1.2,1.3h0l0,0c0.3,0,0.5-0.1,0.7-0.4c0.2-0.3,0.4-0.7,0.3-1.1C58.4,32.6,57.8,32,57.2,32L57.2,32z"/>
	<path fill-rule="evenodd" clip-rule="evenodd" fill="#8D734A" d="M78.9,35.4c0.2-0.5,0.5-0.8,0.9-0.7c0.3,0.1,0.5,0.6,0.3,1
		c-0.2,0.5-0.5,0.8-0.9,0.7C78.9,36.3,78.8,35.9,78.9,35.4z"/>
	<path fill="#FFFFFF" d="M79.6,34.7c0,0,0.1,0,0.1,0c0.3,0.1,0.5,0.6,0.3,1c-0.1,0.4-0.5,0.7-0.7,0.7c0,0-0.1,0-0.1,0
		c-0.3-0.1-0.5-0.6-0.3-1C79,35,79.3,34.7,79.6,34.7 M79.6,34.2L79.6,34.2c-0.5,0-1,0.4-1.2,1.1c-0.1,0.4-0.1,0.9,0.1,1.2
		c0.1,0.2,0.4,0.4,0.6,0.5c0.1,0,0.2,0,0.3,0c0.5,0,1.1-0.4,1.3-1.1c0.1-0.4,0.1-0.8-0.1-1.2c-0.1-0.3-0.4-0.4-0.6-0.5
		C79.8,34.2,79.7,34.2,79.6,34.2L79.6,34.2z"/>
	<polygon fill-rule="evenodd" clip-rule="evenodd" fill="#007549" points="57.9,39.9 56.1,38.9 57.9,37.9 59.7,38.9 	"/>
	<path fill="#FFFFFF" d="M57.9,40.2l-2.3-1.3l2.3-1.3l2.3,1.3L57.9,40.2z M56.7,38.9l1.2,0.7l1.2-0.7l-1.2-0.7L56.7,38.9z"/>
	<polygon fill-rule="evenodd" clip-rule="evenodd" fill="#007549" points="68,39.9 69.8,38.9 68,37.9 66.2,38.9 	"/>
	<path fill="#FFFFFF" d="M68,40.2l-2.3-1.3l2.3-1.3l2.3,1.3L68,40.2z M66.7,38.9l1.2,0.7l1.2-0.7L68,38.2L66.7,38.9z"/>
	<polygon fill-rule="evenodd" clip-rule="evenodd" fill="#007549" points="49.2,41.5 47.2,41.1 48.7,39.6 50.7,40.1 	"/>
	<path fill="#FFFFFF" d="M49.3,41.8l-2.6-0.6l1.9-1.9l2.6,0.6L49.3,41.8z M47.8,40.9l1.4,0.3l1-1l-1.4-0.3L47.8,40.9z"/>
	<polygon fill-rule="evenodd" clip-rule="evenodd" fill="#007549" points="76.7,41.5 78.7,41.1 77.2,39.6 75.2,40.1 	"/>
	<path fill="#FFFFFF" d="M76.6,41.8l-1.9-1.9l2.6-0.6l1.9,1.9L76.6,41.8z M75.8,40.2l1,1l1.4-0.3l-1-1L75.8,40.2z"/>
	<g>
		<path fill="#FFFFFF" d="M76,43.7c-12.7,3-26.1-0.1-26.1-0.1l-0.6,0.1c0,0,14.9-3.7,27.3,0.2C76.8,43.8,76.2,43.6,76,43.7z"/>
	</g>
	<path fill-rule="evenodd" clip-rule="evenodd" fill="#8D734A" d="M45.8,35.5c-0.1-0.4,0.1-0.9,0.4-0.9c0.3-0.1,0.7,0.2,0.8,0.7
		c0.1,0.4-0.1,0.9-0.4,0.9C46.3,36.3,45.9,36,45.8,35.5z"/>
	<path fill="#FFFFFF" d="M46.3,34.6c0.3,0,0.6,0.3,0.7,0.7c0.1,0.4-0.1,0.9-0.4,0.9c0,0-0.1,0-0.1,0c-0.3,0-0.6-0.3-0.7-0.7
		C45.7,35.1,45.9,34.6,46.3,34.6C46.2,34.6,46.2,34.6,46.3,34.6 M46.3,34c-0.1,0-0.1,0-0.2,0c-0.3,0.1-0.5,0.2-0.7,0.5
		c-0.2,0.3-0.2,0.7-0.1,1.1c0.1,0.6,0.7,1.1,1.2,1.1c0.1,0,0.1,0,0.2,0c0.3-0.1,0.5-0.2,0.7-0.5c0.2-0.3,0.2-0.7,0.1-1.1
		C47.4,34.5,46.8,34,46.3,34L46.3,34z"/>
	<path fill-rule="evenodd" clip-rule="evenodd" fill="#8D734A" d="M68.1,33.6c0.1-0.5,0.3-0.9,0.6-0.9c0.3,0,0.5,0.5,0.4,1
		c0,0.5-0.3,0.9-0.6,0.9C68.3,34.5,68.1,34.1,68.1,33.6z"/>
	<path fill="#FFFFFF" d="M68.7,32.7C68.7,32.7,68.7,32.7,68.7,32.7c0.3,0,0.5,0.5,0.5,1c0,0.5-0.3,0.9-0.6,0.9c0,0,0,0,0,0
		c-0.3,0-0.5-0.5-0.5-1C68.2,33.1,68.4,32.7,68.7,32.7 M68.7,32.2L68.7,32.2c-0.6,0-1,0.5-1.1,1.3c-0.1,0.9,0.3,1.5,0.9,1.6l0,0h0
		c0.6,0,1.1-0.6,1.1-1.4c0.1-0.5-0.1-0.9-0.3-1.2C69.2,32.3,69,32.2,68.7,32.2L68.7,32.2L68.7,32.2L68.7,32.2z"/>
	<g>
		<g>
			<path fill="#52646D" d="M111.4,86.2c0,1.4-0.5,2.6-1.6,3.6c-1.1,1-2.4,1.5-3.9,1.5c-0.9,0-2-0.3-3.2-0.8
				c-0.3-0.1-0.6-0.2-0.7-0.2c-0.2,0-0.3,0.2-0.4,0.7c0,0.2-0.1,0.4-0.3,0.4c-0.2,0-0.2-0.1-0.2-0.3c0-0.1,0-0.2,0-0.3
				c0.1-1,0.2-2,0.2-2.8c0-0.2,0-0.6,0-1.4c0-0.1,0-0.2,0-0.4c0-0.2,0.1-0.4,0.3-0.4c0.2,0,0.3,0.2,0.3,0.6c0.4,3,1.8,4.5,4.2,4.5
				c1,0,1.8-0.3,2.4-0.9c0.6-0.6,0.8-1.4,0.8-2.4c0-0.9-0.3-1.7-0.8-2.4c-0.5-0.7-1.5-1.3-2.8-2c-1.6-0.8-2.7-1.5-3.3-2.3
				c-0.6-0.7-0.9-1.6-0.9-2.7c0-1.4,0.4-2.5,1.3-3.4c0.9-0.9,2-1.3,3.4-1.3c0.6,0,1.3,0.2,2.3,0.6c0.3,0.1,0.6,0.2,0.8,0.2
				c0.2,0,0.3,0,0.4-0.1c0.1-0.1,0.1-0.2,0.2-0.5c0-0.2,0.1-0.2,0.3-0.2c0.2,0,0.2,0.1,0.2,0.3c0,0.1,0,0.2,0,0.3
				c0,0.4-0.1,0.9-0.1,1.4c0,0.8,0,1.4,0.1,1.9l0,0.4c0,0.2-0.1,0.3-0.2,0.3c-0.2,0-0.3-0.2-0.4-0.6c-0.2-1-0.6-1.8-1.3-2.5
				c-0.7-0.7-1.4-1-2.3-1c-0.8,0-1.5,0.3-2,0.8c-0.5,0.5-0.7,1.3-0.7,2.2c0,1.1,0.4,1.9,1.1,2.6c0.4,0.4,1.3,0.9,2.6,1.5
				c1.6,0.8,2.7,1.6,3.4,2.4C111,84.3,111.4,85.2,111.4,86.2z"/>
			<path fill="#52646D" d="M124.6,90.9c0,0.1-0.2,0.1-0.5,0.1h-0.2h-1.5h-0.7c-0.3,0-0.7,0-1.2,0h-0.7h-0.4h-0.1
				c-0.3,0-0.4-0.1-0.4-0.2c0-0.1,0.3-0.2,0.9-0.2c0.7,0,1.1-0.1,1.1-0.2c0,0,0-0.2-0.1-0.5c0-0.1-0.2-0.7-0.6-1.7l-0.3-0.8h-3.6
				c-0.7,1.7-1,2.7-1,3c0,0.2,0.1,0.2,0.3,0.2l0.3,0h0.4l0.2,0.1c0.2,0,0.3,0.1,0.3,0.2c0,0.1-0.2,0.2-0.5,0.2c0,0-0.3,0-0.9,0
				c-0.5,0-1,0-1.4,0h-0.2l-0.2,0l-0.3,0H113c-0.3,0-0.4,0-0.4-0.1c0-0.1,0.1-0.2,0.3-0.2c0.3,0,0.5,0,0.6,0c0.3,0,0.5-0.1,0.5-0.2
				c0.1,0,0.5-1,1.2-2.8c0.3-0.8,0.6-1.4,0.8-2.1c0.1-0.2,0.2-0.4,0.2-0.5c0-0.1,0.1-0.3,0.2-0.5c0.3-0.7,0.7-1.7,1.2-3.1l0.4-1
				l0.2-0.4c0.1-0.2,0.2-0.4,0.3-0.4c0,0,0.2,0.2,0.3,0.7c0.5,1.2,1.8,4.4,3.9,9.6c0.2,0.5,0.4,0.8,0.6,0.8c0,0,0.3,0,0.8,0.1
				C124.4,90.7,124.6,90.8,124.6,90.9z M119.5,87l-1.6-4.3c-0.4,1-1,2.4-1.7,4.3H119.5z"/>
			<path fill="#52646D" d="M136.2,79.9c0,0.1-0.2,0.2-0.5,0.2c0,0-0.2,0-0.3,0H135c-0.1,0-0.2,0-0.3,0.1c0,0.1,0,0.3,0,0.7V90
				c0,0.6,0,1,0,1.1c0,0.1-0.1,0.1-0.2,0.1c-0.2,0-0.8-0.7-1.8-2.1c-0.1-0.2-0.3-0.4-0.5-0.8c0,0-0.1-0.2-0.3-0.4
				c-0.8-1.1-2.3-3.2-4.5-6.2v7.9c0,0.6,0.1,0.9,0.3,1c0.2,0,0.5,0,1,0h0.1c0.2,0,0.3,0.1,0.3,0.2c0,0.1-0.2,0.2-0.5,0.2
				c-0.1,0-0.3,0-0.8,0c-0.2,0-0.5,0-0.7,0c-0.2,0-0.3,0-0.5,0c-0.3,0-0.7,0-1,0c-0.3,0-0.4-0.1-0.4-0.2c0-0.1,0.2-0.2,0.5-0.2h0.2
				l0.3,0c0.4,0,0.6-0.1,0.6-0.2c0-0.1,0-0.3,0-0.7v-6.9c0-1.3-0.1-2-0.2-2.3c-0.2-0.3-0.6-0.5-1.2-0.5c-0.4,0-0.6-0.1-0.6-0.2
				c0-0.1,0.1-0.2,0.3-0.2h0.1h1.4c0.1,0,0.2,0,0.3,0c0.2,0,0.3,0,0.4,0h0.9l5.9,8.1v-6.9c0-0.4,0-0.7,0-0.7c0-0.1-0.2-0.1-0.4-0.1
				c-0.2,0-0.4,0-0.5,0h-0.1c-0.3,0-0.5-0.1-0.5-0.2c0-0.1,0.1-0.1,0.2-0.1c0.2,0,0.7,0,1.7,0c0.9,0,1.4,0,1.6,0
				C136.1,79.8,136.2,79.8,136.2,79.9z"/>
			<path fill="#52646D" d="M156.6,89.1c0,0.4,0,1.1-0.1,2.1h-0.3c-0.1,0-0.3,0-0.7,0c-0.4,0-0.8,0-1.3,0l-10.3-0.1
				c-0.3,0-0.4-0.1-0.4-0.2c0-0.1,0.2-0.2,0.7-0.2c0.6,0,1-0.1,1.1-0.2c0.1-0.1,0.2-0.4,0.2-0.9v-14c0-0.6-0.1-1-0.2-1.1
				c-0.1-0.1-0.6-0.1-1.3-0.1c-0.3,0-0.5-0.1-0.5-0.3c0-0.1,0.1-0.2,0.3-0.2h0.2c0.5,0,1.6,0.1,3.3,0.1c0.1,0,0.4,0,0.9,0
				c0.4,0,0.8,0,1.1,0h0.3c0.3,0,0.4,0.1,0.4,0.2c0,0.1,0,0.2-0.1,0.2c-0.1,0-0.4,0-0.9,0.1c-0.5,0-0.8,0.1-0.9,0.2
				c-0.1,0.1-0.1,0.6-0.1,1.3v14.7c0.4,0,1.1,0,1.9,0c1.9,0,3.3-0.1,4.1-0.3c0.8-0.2,1.3-0.6,1.6-1.1c0.3-0.5,0.4-1.3,0.5-2.2
				c0-0.2,0.1-0.3,0.3-0.3c0.2,0,0.3,0.1,0.3,0.4v0.6c0,0,0,0.1,0,0.2c0,0.1,0,0.2,0,0.3V89.1z"/>
			<path fill="#52646D" d="M169.6,85.5c0,1.6-0.5,3-1.6,4.1c-1,1.1-2.3,1.7-3.8,1.7c-1.6,0-3-0.6-4.1-1.7c-1.1-1.1-1.7-2.5-1.7-4.2
				c0-1.7,0.5-3.1,1.6-4.2c1.1-1.1,2.4-1.6,4-1.6c1.6,0,2.9,0.6,3.9,1.7C169.1,82.4,169.6,83.8,169.6,85.5z M167.3,85.5
				c0-1.9-0.4-3.4-1.2-4.5c-0.5-0.7-1.2-1.1-2.1-1.1c-1.2,0-2.1,0.7-2.6,2c-0.4,0.9-0.6,2.1-0.6,3.5c0,1.7,0.3,3,0.9,4
				c0.6,1,1.4,1.4,2.5,1.4C166.2,90.9,167.3,89.1,167.3,85.5z"/>
			<path fill="#52646D" d="M182.2,90.4c0,0.5-0.5,0.8-1.4,0.8c-0.9,0-1.6-0.3-2.2-1c-0.2-0.3-0.4-0.6-0.5-0.9
				c-0.1-0.3-0.2-1-0.3-2.1c-0.1-0.7-0.3-1.2-0.7-1.5c-0.4-0.3-1-0.4-1.9-0.5v5.1c-0.1,0.2,0.4,0.3,1.2,0.3c0.2,0,0.3,0.1,0.3,0.2
				c0,0.1-0.1,0.2-0.3,0.2c-0.2,0-0.4,0-0.5,0H175c-0.4,0-0.8,0-1.3,0c-0.5,0-0.8,0-0.8,0h-0.5c-0.5,0-0.7-0.1-0.7-0.2
				c0-0.1,0.1-0.2,0.3-0.2c0,0,0.1,0,0.2,0h0.1c0.6,0,0.8-0.1,0.8-0.3v-9.8c0-0.2,0-0.3-0.1-0.4c-0.1-0.1-0.3-0.1-0.7-0.1
				c-0.4,0-0.6-0.1-0.6-0.2c0-0.1,0.1-0.2,0.3-0.2h0.2c0.3,0,1.1,0,2.4,0c0.5,0,1,0,1.3,0c0.3,0,0.6,0,0.8,0c1.1,0,2,0.2,2.7,0.7
				c0.7,0.5,1,1.1,1,1.8c0,0.8-0.4,1.5-1.1,2c-0.7,0.5-1.7,0.8-3,0.9c1.4,0.1,2.4,0.5,2.9,1.1c0.5,0.6,0.9,1.6,1,3.1
				c0.1,1,0.4,1.5,0.9,1.5c0.1,0,0.1,0,0.1-0.1c0,0,0-0.1-0.1-0.2c0-0.1-0.1-0.2-0.1-0.2c0-0.3,0.2-0.5,0.5-0.5
				C182,89.9,182.2,90.1,182.2,90.4z M178.2,82.4c0-1.5-0.7-2.2-2.2-2.2c-0.4,0-0.6,0-0.7,0.1c-0.1,0.1-0.1,0.3-0.1,0.5v4.1
				C177.2,84.9,178.2,84,178.2,82.4z"/>
			<path fill="#52646D" d="M192.9,88.4c0,0,0,0.1,0,0.3c0,0.2,0,0.4,0,0.5v1.4c0,0.2,0,0.3,0.1,0.5l-4.2-0.1l-4.8,0.1
				c-0.3,0-0.5-0.1-0.5-0.2c0-0.2,0.1-0.2,0.3-0.2c0.5,0,0.8,0,0.9-0.1c0.1-0.1,0.1-0.3,0.1-0.8v-8.6c0-0.7-0.1-1-0.2-1.1
				c-0.1,0-0.4-0.1-0.9-0.1c-0.2,0-0.3-0.1-0.3-0.2c0-0.1,0.1-0.2,0.3-0.2h0.6c0.2,0,0.3,0,0.5,0h0.3h0.6c0.1,0,0.5,0,1.2,0
				c0.8,0,1.7,0,2.7,0h1.5c0.4,0,0.8,0,1.1,0v0.2l0,0.4c0,0.2,0.1,1,0.2,2.2c0,0.1,0,0.2,0,0.3c0,0.2-0.1,0.3-0.2,0.3
				c-0.1,0-0.3-0.2-0.3-0.5c-0.2-1.3-0.7-2-1.3-2.2c-0.4-0.1-1.2-0.2-2.6-0.2h-1.3v4.7h0.6c1.1,0,1.7-0.1,2-0.3
				c0.2-0.2,0.4-0.7,0.5-1.4c0-0.5,0.2-0.7,0.3-0.7c0.2,0,0.2,0.2,0.2,0.5c0,0.2,0,0.5,0,0.9c0,0.4,0,0.7,0,0.9c0,1.1,0,1.8,0.1,2.2
				c0,0.1,0,0.2,0,0.3c0,0.3-0.1,0.4-0.2,0.4c-0.1,0-0.2-0.2-0.3-0.6c-0.1-0.9-0.3-1.4-0.5-1.6c-0.2-0.2-0.9-0.3-1.9-0.3h-0.6v5.4
				c2.4,0,3.9-0.1,4.3-0.2c0.7-0.2,1-1,1.2-2.4c0-0.3,0.1-0.4,0.3-0.4C192.8,87.7,192.9,87.9,192.9,88.4z"/>
			<path fill="#52646D" d="M205.6,79.9c0,0.1-0.2,0.2-0.5,0.2c0,0-0.2,0-0.3,0h-0.3c-0.1,0-0.2,0-0.3,0.1c0,0.1,0,0.3,0,0.7V90
				c0,0.6,0,1,0,1.1s-0.1,0.1-0.2,0.1c-0.2,0-0.8-0.7-1.8-2.1c-0.1-0.2-0.3-0.4-0.5-0.8c0,0-0.1-0.2-0.3-0.4
				c-0.8-1.1-2.3-3.2-4.5-6.2v7.9c0,0.6,0.1,0.9,0.3,1c0.2,0,0.5,0,1,0h0.1c0.2,0,0.3,0.1,0.3,0.2c0,0.1-0.2,0.2-0.5,0.2
				c-0.1,0-0.3,0-0.8,0c-0.2,0-0.5,0-0.7,0c-0.2,0-0.3,0-0.5,0c-0.3,0-0.7,0-1,0c-0.3,0-0.4-0.1-0.4-0.2c0-0.1,0.2-0.2,0.5-0.2h0.2
				l0.3,0c0.4,0,0.6-0.1,0.6-0.2c0-0.1,0-0.3,0-0.7v-6.9c0-1.3-0.1-2-0.2-2.3c-0.2-0.3-0.6-0.5-1.2-0.5c-0.4,0-0.6-0.1-0.6-0.2
				c0-0.1,0.1-0.2,0.3-0.2h0.1h1.4c0.1,0,0.2,0,0.3,0c0.2,0,0.3,0,0.4,0h0.9l5.9,8.1v-6.9c0-0.4,0-0.7,0-0.7c0-0.1-0.2-0.1-0.4-0.1
				c-0.2,0-0.4,0-0.5,0h-0.1c-0.3,0-0.5-0.1-0.5-0.2c0-0.1,0.1-0.1,0.2-0.1c0.2,0,0.7,0,1.7,0c0.9,0,1.4,0,1.6,0
				C205.5,79.8,205.6,79.8,205.6,79.9z"/>
			<path fill="#52646D" d="M216.4,87.3c0-0.1-0.1,0.2-0.2,0.9l-0.1,1c0,0.2-0.1,0.6-0.2,1c0,0.3-0.1,0.6-0.1,0.8c-1.2,0-2.2,0-3.2,0
				h-2.1l-1.8,0l-0.6,0h-0.3c-0.2,0-0.4-0.1-0.4-0.1c0,0,0-0.1,0.1-0.2l0.1-0.2c0.7-1.2,2-3.6,4.1-7.1c0.9-1.5,1.5-2.6,1.9-3.3
				c-0.4,0-0.9-0.1-1.6-0.1c-1.6,0-2.5,0.3-2.8,0.9c-0.3,0.5-0.5,1.2-0.6,2.1c-0.1,0.3-0.2,0.4-0.3,0.4s-0.2-0.1-0.2-0.3
				c0-0.1,0-0.2,0-0.2l0.1-0.8c0-0.3,0.1-0.6,0.1-0.8l0.1-0.7c0-0.3,0.1-0.6,0.2-1c1,0.1,2,0.1,3.2,0.1c1.3,0,2.2,0,2.6,0l0.7,0h0.4
				h0.3c-0.1,0.5-0.7,1.5-1.6,3.1l-4.1,7c-0.1,0.2-0.3,0.5-0.5,0.8c0.9,0,1.5,0,2,0c1.5,0,2.5-0.2,2.9-0.6c0.5-0.4,0.9-1.3,1.1-2.7
				c0-0.2,0.1-0.3,0.3-0.3C216.4,87,216.4,87.1,216.4,87.3z"/>
			<path fill="#52646D" d="M229.6,85.5c0,1.6-0.5,3-1.6,4.1c-1,1.1-2.3,1.7-3.8,1.7c-1.6,0-3-0.6-4.1-1.7c-1.1-1.1-1.7-2.5-1.7-4.2
				c0-1.7,0.5-3.1,1.6-4.2c1.1-1.1,2.4-1.6,4-1.6c1.6,0,2.9,0.6,3.9,1.7C229.1,82.4,229.6,83.8,229.6,85.5z M227.3,85.5
				c0-1.9-0.4-3.4-1.2-4.5c-0.5-0.7-1.2-1.1-2.1-1.1c-1.2,0-2.1,0.7-2.6,2c-0.4,0.9-0.6,2.1-0.6,3.5c0,1.7,0.3,3,0.9,4
				c0.6,1,1.4,1.4,2.5,1.4C226.3,90.9,227.3,89.1,227.3,85.5z"/>
			<path fill="#52646D" d="M248.9,85.4c0,1.9-0.7,3.5-2.2,4.5c-1.1,0.8-2.5,1.1-4.2,1.1c0,0-0.1,0-0.6,0c-0.4,0-1.1,0-2,0h-0.5
				c0,0-0.1,0-0.4,0c-0.3,0-0.7,0-1,0h-0.2c-0.3,0-0.4-0.1-0.4-0.2c0-0.1,0.1-0.2,0.3-0.2h0.6c0.3,0,0.5-0.1,0.5-0.3
				c0-0.1,0-0.4,0-0.9v-8c0-0.8,0-1.2,0-1.3c-0.1-0.1-0.4-0.2-0.9-0.2c-0.3,0-0.4-0.1-0.4-0.2c0-0.1,0.1-0.2,0.4-0.2c0,0,0,0,0.2,0
				c0.2,0,0.5,0,0.9,0h1.7c2.2,0,3.7,0.1,4.6,0.4c1.1,0.3,2,1,2.7,1.9C248.5,83,248.9,84.1,248.9,85.4z M246.5,85.3
				c0-3.4-1.4-5.2-4.2-5.2c-0.8,0-1.3,0-1.4,0.1c-0.1,0.1-0.1,0.4-0.1,0.9V90c0,0.3,0.1,0.5,0.2,0.5c0.1,0.1,0.5,0.1,1.1,0.1
				C245,90.6,246.5,88.9,246.5,85.3z"/>
			<path fill="#52646D" d="M260.4,88.4c0,0,0,0.1,0,0.3c0,0.2,0,0.4,0,0.5v1.4c0,0.2,0,0.3,0.1,0.5l-4.2-0.1l-4.8,0.1
				c-0.4,0-0.5-0.1-0.5-0.2c0-0.2,0.1-0.2,0.3-0.2c0.5,0,0.8,0,0.9-0.1c0.1-0.1,0.1-0.3,0.1-0.8v-8.6c0-0.7-0.1-1-0.2-1.1
				c-0.1,0-0.4-0.1-0.9-0.1c-0.2,0-0.3-0.1-0.3-0.2c0-0.1,0.1-0.2,0.3-0.2h0.6c0.2,0,0.3,0,0.5,0h0.3h0.6c0.1,0,0.5,0,1.2,0
				c0.8,0,1.7,0,2.7,0h1.5c0.4,0,0.8,0,1.1,0v0.2l0,0.4c0,0.2,0.1,1,0.2,2.2c0,0.1,0,0.2,0,0.3c0,0.2-0.1,0.3-0.2,0.3
				c-0.1,0-0.3-0.2-0.3-0.5c-0.2-1.3-0.7-2-1.3-2.2c-0.4-0.1-1.2-0.2-2.6-0.2h-1.3v4.7h0.6c1.1,0,1.7-0.1,2-0.3
				c0.2-0.2,0.4-0.7,0.5-1.4c0-0.5,0.1-0.7,0.3-0.7c0.2,0,0.2,0.2,0.2,0.5c0,0.2,0,0.5,0,0.9c0,0.4,0,0.7,0,0.9c0,1.1,0,1.8,0.1,2.2
				c0,0.1,0,0.2,0,0.3c0,0.3-0.1,0.4-0.2,0.4c-0.1,0-0.2-0.2-0.3-0.6c-0.1-0.9-0.3-1.4-0.5-1.6c-0.2-0.2-0.9-0.3-1.9-0.3h-0.6v5.4
				c2.4,0,3.9-0.1,4.3-0.2c0.7-0.2,1-1,1.2-2.4c0-0.3,0.1-0.4,0.3-0.4C260.3,87.7,260.4,87.9,260.4,88.4z"/>
			<path fill="#52646D" d="M281.1,87c0,0.1,0,0.5-0.1,1.2c0,0.7,0,1.5,0,2.1v0.8c-1.6-0.1-4.8-0.1-9.7-0.1c-0.6,0-1.2,0-1.7,0
				c-0.6,0-0.9,0-1.1,0h-0.3c-0.3,0-0.5-0.1-0.5-0.2c0-0.1,0-0.1,0.1-0.2c0,0,0.4,0,0.9-0.1c0.4,0,0.7-0.1,0.8-0.3
				c0.1-0.2,0.1-0.5,0.1-1.2v-14c0-0.5-0.1-0.8-0.2-0.9c-0.1-0.1-0.6-0.1-1.4-0.1c-0.3,0-0.4-0.1-0.4-0.2s0.2-0.2,0.5-0.2h4.3
				c0.1,0,1.1,0,2.8,0c1.7,0,2.9,0,3.5,0c0.5,0,1,0,1.4-0.1c0,0.7,0.1,1.7,0.2,3l0.1,1.1c0,0.1,0,0.2,0,0.3c0,0.2-0.1,0.2-0.2,0.2
				c-0.2,0-0.3-0.2-0.4-0.6c-0.3-1.5-0.8-2.5-1.5-2.9c-0.5-0.3-1.9-0.5-4.2-0.5h-2v7.3h0.6c1.9,0,3-0.1,3.4-0.4
				c0.4-0.3,0.7-1.1,0.8-2.5c0-0.3,0.1-0.5,0.3-0.5c0.2,0,0.3,0.2,0.3,0.4c0,0.3,0,0.7-0.1,1.3c0,0.6,0,1,0,1.3c0,1.8,0,3,0.1,3.7
				c0,0.2,0,0.3,0,0.4c0,0.2-0.1,0.3-0.3,0.3c-0.1,0-0.2-0.1-0.2-0.2c0-0.1-0.1-0.6-0.2-1.4c-0.1-1-0.5-1.6-1.2-1.8
				c-0.3-0.1-1.1-0.1-2.3-0.1h-1.1v8.3c3.7,0,5.8-0.1,6.4-0.2c1.1-0.2,1.7-1.3,1.9-3.1c0-0.4,0.1-0.6,0.3-0.6
				C281,86.5,281.1,86.7,281.1,87z"/>
			<path fill="#52646D" d="M292.5,88.8c0,0.9,0,1.7,0,2.3c-0.1,0-0.2,0-0.4,0c0,0-0.1,0-0.4,0c-0.2,0-0.6,0-0.9,0h-1.2l-4.3,0h-2
				c-0.2,0-0.3-0.1-0.3-0.2c0-0.1,0.3-0.2,1-0.2c0.2,0,0.3-0.1,0.3-0.1c0-0.1,0.1-0.3,0.1-0.5v-8.4c0-0.9-0.1-1.4-0.2-1.5
				c-0.1,0-0.2,0-0.4,0c-0.2,0-0.4,0-0.4,0c-0.2,0-0.3-0.1-0.3-0.2c0-0.1,0.1-0.2,0.3-0.2h3.5c0.2,0,0.4,0,0.6,0
				c0.3,0,0.5,0.1,0.5,0.2c0,0.1-0.3,0.1-0.8,0.2c-0.3,0-0.4,0.1-0.5,0.2c0,0.1-0.1,0.5-0.1,1.1v9.3c0.7,0,1.1,0,1.4,0
				c1.8,0,2.9-0.2,3.3-0.5c0.4-0.3,0.6-0.9,0.7-1.8c0-0.4,0.1-0.6,0.3-0.6C292.4,87.7,292.5,88.1,292.5,88.8z"/>
			<path fill="#52646D" d="M313.1,87c0,0.1,0,0.5-0.1,1.2c0,0.7,0,1.5,0,2.1v0.8c-1.6-0.1-4.8-0.1-9.7-0.1c-0.6,0-1.2,0-1.7,0
				c-0.6,0-0.9,0-1.1,0h-0.2c-0.3,0-0.5-0.1-0.5-0.2c0-0.1,0-0.1,0.1-0.2c0,0,0.4,0,0.9-0.1c0.4,0,0.7-0.1,0.8-0.3
				c0.1-0.2,0.1-0.5,0.1-1.2v-14c0-0.5-0.1-0.8-0.2-0.9c-0.1-0.1-0.6-0.1-1.4-0.1c-0.3,0-0.4-0.1-0.4-0.2s0.2-0.2,0.5-0.2h4.3
				c0.1,0,1.1,0,2.8,0c1.7,0,2.9,0,3.5,0c0.5,0,1,0,1.4-0.1c0,0.7,0.1,1.7,0.2,3l0.1,1.1c0,0.1,0,0.2,0,0.3c0,0.2-0.1,0.2-0.2,0.2
				c-0.2,0-0.3-0.2-0.4-0.6c-0.3-1.5-0.8-2.5-1.5-2.9c-0.5-0.3-1.9-0.5-4.2-0.5h-2v7.3h0.6c1.9,0,3-0.1,3.4-0.4
				c0.4-0.3,0.7-1.1,0.8-2.5c0-0.3,0.1-0.5,0.3-0.5c0.2,0,0.3,0.2,0.3,0.4c0,0.3,0,0.7,0,1.3c0,0.6,0,1,0,1.3c0,1.8,0,3,0.1,3.7
				c0,0.2,0,0.3,0,0.4c0,0.2-0.1,0.3-0.3,0.3c-0.1,0-0.2-0.1-0.2-0.2c0-0.1-0.1-0.6-0.2-1.4c-0.1-1-0.5-1.6-1.2-1.8
				c-0.3-0.1-1.1-0.1-2.3-0.1h-1.1v8.3c3.7,0,5.8-0.1,6.4-0.2c1.1-0.2,1.7-1.3,1.9-3.1c0-0.4,0.1-0.6,0.3-0.6
				C313,86.5,313.1,86.7,313.1,87z"/>
			<path fill="#52646D" d="M322.9,87.9c0,0.9-0.4,1.7-1.2,2.4c-0.8,0.7-1.8,1-2.9,1c-0.8,0-1.7-0.3-2.6-0.8c-0.1,0-0.2,0-0.2,0
				c-0.1,0-0.2,0.1-0.2,0.2c0,0.2,0,0.3-0.1,0.4c0,0.1-0.1,0.2-0.2,0.2c-0.2,0-0.2-0.1-0.2-0.2c0,0,0-0.3,0-0.7c0-0.5,0-0.9,0-1.2
				c0-0.2,0-0.4,0-0.6c0-0.3,0-0.5,0-0.6c0-0.3,0.1-0.5,0.2-0.5c0.2,0,0.3,0.3,0.4,0.8c0.3,1.8,1.3,2.7,2.9,2.7
				c1.4,0,2.1-0.7,2.1-2.1c0-0.6-0.2-1.1-0.5-1.5c-0.3-0.4-1-0.8-1.9-1.3c-1.3-0.6-2.1-1.1-2.4-1.5c-0.4-0.5-0.7-1.1-0.7-1.8
				c0-0.9,0.3-1.7,1-2.2c0.7-0.6,1.5-0.9,2.5-0.9c0.6,0,1.3,0.2,2,0.6c0.1,0,0.1,0.1,0.2,0.1c0.1,0,0.2-0.1,0.2-0.4
				c0-0.2,0.1-0.4,0.3-0.4c0.2,0,0.2,0.1,0.2,0.2c0,0,0,0.1,0,0.2c0,0.3,0,0.6,0,1c0,0.2,0,0.7,0.1,1.3c0,0.1,0,0.1,0,0.2
				c0,0.2-0.1,0.3-0.2,0.3c-0.1,0-0.3-0.1-0.3-0.4c-0.2-0.7-0.5-1.3-0.9-1.7c-0.5-0.4-1-0.7-1.6-0.7c-1.2,0-1.8,0.6-1.8,1.9
				c0,0.6,0.2,1,0.5,1.4c0.2,0.2,0.3,0.4,0.5,0.5c0.2,0.1,0.8,0.4,1.7,0.9c1.1,0.5,1.8,1,2.3,1.5C322.7,86.6,322.9,87.2,322.9,87.9z
				"/>
			<path fill="#52646D" d="M334.9,87.3c0,0,0,0.2,0,0.4c-0.1,0.9-0.1,1.5-0.1,1.9c0,0.3,0,0.6,0.1,1.1v0.2c0,0.2-0.1,0.2-0.2,0.2
				c-0.1,0-0.3-0.1-0.4-0.4l-0.2-0.5c0,0,0-0.1-0.1-0.2c-0.7,0.7-1.8,1.1-3.1,1.1c-1.7,0-3.1-0.6-4.2-1.7c-1.1-1.1-1.7-2.5-1.7-4.2
				c0-1.7,0.5-3.1,1.5-4.2c1-1.1,2.3-1.6,3.9-1.6c1.2,0,2.3,0.3,3.1,1c0.1,0.1,0.1,0.1,0.2,0.1c0.1,0,0.2-0.1,0.2-0.3
				c0.1-0.4,0.3-0.5,0.4-0.5c0.1,0,0.2,0.1,0.2,0.2c0,0,0,0.1,0,0.2c-0.1,0.6-0.2,1.4-0.2,2.5c0,0.7-0.1,1-0.3,1
				c-0.1,0-0.2-0.1-0.3-0.4c-0.2-0.9-0.4-1.6-0.6-2c-0.5-0.9-1.4-1.4-2.6-1.4c-1,0-1.8,0.5-2.4,1.5c-0.6,1-0.9,2.3-0.9,4s0.3,3,1,4
				c0.7,1,1.6,1.5,2.7,1.5c0.9,0,1.6-0.3,2.2-0.9c0.6-0.6,1-1.4,1.1-2.4c0.1-0.4,0.2-0.6,0.3-0.6C334.8,86.9,334.9,87,334.9,87.3z"
				/>
			<path fill="#52646D" d="M348.4,85.5c0,1.6-0.5,3-1.6,4.1c-1,1.1-2.3,1.7-3.8,1.7c-1.6,0-3-0.6-4.1-1.7c-1.1-1.1-1.7-2.5-1.7-4.2
				c0-1.7,0.5-3.1,1.6-4.2c1.1-1.1,2.4-1.6,4-1.6c1.6,0,2.9,0.6,3.9,1.7C347.9,82.4,348.4,83.8,348.4,85.5z M346,85.5
				c0-1.9-0.4-3.4-1.2-4.5c-0.5-0.7-1.2-1.1-2.1-1.1c-1.2,0-2.1,0.7-2.6,2c-0.4,0.9-0.6,2.1-0.6,3.5c0,1.7,0.3,3,0.9,4
				c0.6,1,1.4,1.4,2.5,1.4C345,90.9,346,89.1,346,85.5z"/>
			<path fill="#52646D" d="M361,90.4c0,0.5-0.5,0.8-1.4,0.8c-0.9,0-1.6-0.3-2.2-1c-0.2-0.3-0.4-0.6-0.5-0.9c-0.1-0.3-0.2-1-0.3-2.1
				c-0.1-0.7-0.3-1.2-0.7-1.5c-0.4-0.3-1-0.4-1.9-0.5v5.1c0,0.2,0.4,0.3,1.3,0.3c0.2,0,0.3,0.1,0.3,0.2c0,0.1-0.1,0.2-0.3,0.2
				c-0.2,0-0.4,0-0.5,0h-0.9c-0.4,0-0.8,0-1.3,0c-0.5,0-0.8,0-0.8,0h-0.5c-0.5,0-0.7-0.1-0.7-0.2c0-0.1,0.1-0.2,0.3-0.2
				c0,0,0.1,0,0.2,0h0.1c0.6,0,0.8-0.1,0.8-0.3v-9.8c0-0.2,0-0.3-0.1-0.4c-0.1-0.1-0.3-0.1-0.7-0.1c-0.4,0-0.6-0.1-0.6-0.2
				c0-0.1,0.1-0.2,0.3-0.2h0.2c0.3,0,1.1,0,2.4,0c0.5,0,1,0,1.3,0c0.3,0,0.6,0,0.8,0c1.1,0,2,0.2,2.7,0.7c0.7,0.5,1,1.1,1,1.8
				c0,0.8-0.4,1.5-1.1,2c-0.7,0.5-1.7,0.8-3,0.9c1.4,0.1,2.4,0.5,2.9,1.1c0.5,0.6,0.9,1.6,1,3.1c0.1,1,0.4,1.5,0.9,1.5
				c0.1,0,0.1,0,0.1-0.1c0,0,0-0.1-0.1-0.2c0-0.1-0.1-0.2-0.1-0.2c0-0.3,0.2-0.5,0.5-0.5C360.8,89.9,361,90.1,361,90.4z M357,82.4
				c0-1.5-0.7-2.2-2.2-2.2c-0.4,0-0.6,0-0.7,0.1c-0.1,0.1-0.1,0.3-0.1,0.5v4.1C356,84.9,357,84,357,82.4z"/>
			<path fill="#52646D" d="M367.1,90.9c0,0.1-0.1,0.1-0.2,0.1h-0.2h-0.5h-0.6c-0.1,0-0.3,0-0.4,0c-0.1,0-0.2,0-0.3,0
				c-0.2,0-0.5,0-0.9,0c-0.5,0-0.8,0-1,0h-0.1c-0.3,0-0.4,0-0.4-0.1c0-0.1,0.2-0.2,0.5-0.2c0.5,0,0.8-0.1,0.8-0.2c0-0.1,0-0.4,0-1.1
				v-8.1c0-0.7,0-1,0-1.1c0-0.1-0.2-0.2-0.4-0.2h-0.5h-0.3c-0.1,0-0.2-0.1-0.2-0.2c0-0.1,0.1-0.2,0.3-0.2c0,0,0,0,0.2,0
				c0.1,0,0.3,0,0.5,0h1.8c0.1,0,0.2,0,0.4,0c0.2,0,0.4,0,0.5,0h0.6c0.3,0,0.4,0.1,0.4,0.2c0,0.1-0.3,0.2-0.8,0.2
				c-0.2,0-0.4,0-0.4,0.1c0,0.1-0.1,0.3-0.1,0.7v9.4c0,0.2,0.1,0.3,0.2,0.3c0.1,0,0.4,0.1,0.9,0.1C367,90.8,367.1,90.8,367.1,90.9z"
				/>
			<path fill="#52646D" d="M380.2,90.9c0,0.1-0.2,0.1-0.5,0.1h-0.2H378h-0.7c-0.3,0-0.7,0-1.2,0h-0.7h-0.4h-0.1
				c-0.3,0-0.4-0.1-0.4-0.2c0-0.1,0.3-0.2,0.9-0.2c0.7,0,1.1-0.1,1.1-0.2c0,0-0.1-0.2-0.2-0.5c0-0.1-0.2-0.7-0.6-1.7l-0.3-0.8h-3.6
				c-0.7,1.7-1,2.7-1,3c0,0.2,0.1,0.2,0.3,0.2l0.3,0h0.4l0.2,0.1c0.2,0,0.3,0.1,0.3,0.2c0,0.1-0.2,0.2-0.5,0.2c0,0-0.3,0-0.9,0
				c-0.5,0-1,0-1.4,0h-0.2l-0.2,0l-0.3,0h0c-0.3,0-0.4,0-0.4-0.1c0-0.1,0.1-0.2,0.3-0.2c0.3,0,0.5,0,0.6,0c0.3,0,0.5-0.1,0.5-0.2
				c0.1,0,0.5-1,1.2-2.8c0.3-0.8,0.6-1.4,0.8-2.1c0.1-0.2,0.2-0.4,0.2-0.5c0-0.1,0.1-0.3,0.2-0.5c0.3-0.7,0.7-1.7,1.2-3.1l0.4-1
				l0.2-0.4c0.1-0.2,0.2-0.4,0.3-0.4c0,0,0.2,0.2,0.3,0.7c0.5,1.2,1.8,4.4,3.9,9.6c0.2,0.5,0.4,0.8,0.6,0.8c0,0,0.3,0,0.8,0.1
				C380,90.7,380.2,90.8,380.2,90.9z M375.1,87l-1.6-4.3c-0.4,1-1,2.4-1.7,4.3H375.1z"/>
			<path fill="#52646D" d="M390.4,88.8c0,0.9,0,1.7,0,2.3c-0.1,0-0.2,0-0.4,0c0,0-0.1,0-0.4,0c-0.2,0-0.6,0-0.9,0h-1.2l-4.3,0h-2
				c-0.2,0-0.3-0.1-0.3-0.2c0-0.1,0.3-0.2,1-0.2c0.2,0,0.3-0.1,0.3-0.1c0-0.1,0.1-0.3,0.1-0.5v-8.4c0-0.9-0.1-1.4-0.2-1.5
				c-0.1,0-0.2,0-0.4,0c-0.2,0-0.4,0-0.4,0c-0.2,0-0.3-0.1-0.3-0.2c0-0.1,0.1-0.2,0.3-0.2h3.5c0.2,0,0.4,0,0.6,0
				c0.3,0,0.5,0.1,0.5,0.2c0,0.1-0.3,0.1-0.8,0.2c-0.3,0-0.4,0.1-0.5,0.2c-0.1,0.1-0.1,0.5-0.1,1.1v9.3c0.7,0,1.1,0,1.4,0
				c1.8,0,2.9-0.2,3.3-0.5c0.4-0.3,0.6-0.9,0.7-1.8c0-0.4,0.1-0.6,0.3-0.6C390.3,87.7,390.4,88.1,390.4,88.8z"/>
		</g>
		<g>
			<path fill="#52646D" d="M115.4,64.9c0,0.1-0.1,0.2-0.4,0.2h-0.2c-0.2,0-0.5,0-1,0c-0.5,0-0.9,0-1.1,0c-0.4,0-0.9,0-1.4,0
				c-0.5,0-0.9,0-1.1,0H110c-0.3,0-0.4-0.1-0.4-0.2c0-0.1,0.2-0.2,0.6-0.2c0.7,0,1.1-0.1,1.2-0.2c0.1-0.1,0.1-0.5,0.1-1.3V52.8
				c0,0-0.1,0.2-0.2,0.7c-0.5,1.6-1.3,4-2.3,7.3l-0.9,3.2c-0.2,0.6-0.3,0.9-0.4,0.9c-0.1,0-0.2-0.2-0.3-0.5
				c-0.4-1.2-1.5-4.2-3.3-9.1l-0.8-2.1c0,0.3,0,0.6,0,1v6.5c0,2.4,0,3.7,0.1,3.7c0.1,0.2,0.4,0.3,1,0.3c0.4,0,0.7,0.1,0.7,0.2
				c0,0.1-0.1,0.2-0.4,0.2c-0.2,0-0.3,0-0.5,0c-0.2,0-0.4,0-0.5,0l-2.3,0.1c-0.2,0-0.4-0.1-0.4-0.2c0-0.1,0.4-0.2,1.1-0.2
				c0.3,0,0.5-0.1,0.6-0.2c0.1-0.1,0.1-0.5,0.1-1v-9.6c0-1.1,0-1.7,0-1.8c-0.1-0.2-0.2-0.3-0.3-0.4c-0.2-0.1-0.5-0.1-1.1-0.2
				c-0.2,0-0.3-0.1-0.3-0.2c0-0.1,0.2-0.2,0.6-0.2c0.1,0,0.2,0,0.3,0h1c0.8,0,1.4,0,1.7,0c0.1,0.2,0.5,1.2,1.2,3.1
				c0.3,0.8,1.2,3.1,2.6,7c0.3-0.9,0.5-1.7,0.8-2.6l2.1-6.6c0.1-0.4,0.3-0.7,0.4-0.9l2.9,0c0.4,0,0.7,0,0.7,0.1
				c0.1,0,0.1,0.1,0.1,0.2c0,0.1-0.1,0.2-0.3,0.2c-0.4,0-0.6,0-0.8,0c-0.3,0.1-0.5,0.2-0.7,0.3c-0.1,0.1-0.1,0.9-0.1,2.3v9.3
				c0,0.5,0.1,0.8,0.2,0.9c0.2,0.1,0.6,0.2,1.3,0.2h0.1C115.3,64.7,115.4,64.7,115.4,64.9z"/>
			<path fill="#52646D" d="M119.2,64.1c0,0.3-0.1,0.5-0.3,0.8c-0.2,0.2-0.5,0.3-0.7,0.3c-0.3,0-0.6-0.1-0.8-0.3
				c-0.2-0.2-0.3-0.5-0.3-0.8c0-0.3,0.1-0.5,0.3-0.8c0.2-0.2,0.5-0.3,0.8-0.3c0.3,0,0.5,0.1,0.7,0.3
				C119.1,63.5,119.2,63.8,119.2,64.1z"/>
			<path fill="#52646D" d="M126.5,64.8c0,0.1-0.1,0.2-0.2,0.2h-0.2c-0.1,0-1-0.1-2.7-0.1c-0.3,0-0.7,0-1,0c-0.2,0-0.4,0-0.8,0
				c-0.2,0-0.3-0.1-0.3-0.2c0-0.1,0.2-0.2,0.5-0.2c0.5,0,0.8-0.1,0.9-0.2c0.1-0.1,0.1-0.5,0.1-1.1V52.8c0-0.7,0-1-0.1-1.1
				c-0.1-0.1-0.5-0.2-1.1-0.2c-0.3,0-0.4-0.1-0.4-0.1c0-0.1,0.1-0.2,0.2-0.2h2.7c0.2,0,0.6,0,1.2,0l0.8,0c0.2,0,0.3,0.1,0.3,0.2
				c0,0.1-0.3,0.2-0.9,0.2c-0.3,0-0.5,0.1-0.6,0.2c-0.1,0.1-0.1,0.4-0.1,0.8v10.6c0,0.8,0,1.2,0.1,1.2c0.1,0.1,0.6,0.2,1.3,0.3
				C126.4,64.6,126.5,64.7,126.5,64.8z"/>
			<path fill="#52646D" d="M130.6,64.1c0,0.3-0.1,0.5-0.3,0.8s-0.5,0.3-0.7,0.3c-0.3,0-0.6-0.1-0.8-0.3c-0.2-0.2-0.3-0.5-0.3-0.8
				c0-0.3,0.1-0.5,0.3-0.8c0.2-0.2,0.5-0.3,0.8-0.3c0.3,0,0.5,0.1,0.7,0.3S130.6,63.8,130.6,64.1z"/>
			<path fill="#52646D" d="M148.8,64.9c0,0.1-0.1,0.2-0.3,0.2c-0.1,0-0.3,0-0.4,0l-2.5-0.1L143,65c-0.1,0-0.2,0-0.3,0
				c-0.3,0-0.4-0.1-0.4-0.2c0-0.2,0.2-0.2,0.5-0.2c1.2,0,1.8-0.1,1.8-0.4c0,0,0-0.1,0-0.2l-0.2-0.5l-0.1-0.3
				c-0.1-0.4-0.4-1.3-0.9-2.7h-4.3c-0.8,2.1-1.2,3.3-1.2,3.7c0,0.2,0.1,0.3,0.2,0.3c0,0,0.4,0,1,0.1c0.4,0,0.6,0.1,0.6,0.2
				c0,0.1-0.2,0.2-0.5,0.2c-0.6,0-1.3,0-2.1-0.1c-0.2,0-0.4,0-0.6,0c-0.2,0-0.4,0-0.6,0.1c-0.1,0-0.2,0-0.3,0
				c-0.2,0-0.3-0.1-0.3-0.2c0-0.1,0.2-0.2,0.6-0.2c0.4,0,0.7-0.1,0.9-0.2c0.2-0.1,0.3-0.3,0.4-0.7c1.7-4.9,3.1-8.8,4.2-11.8
				c0-0.2,0.1-0.3,0.2-0.5l0.1-0.4c0-0.1,0.1-0.2,0.2-0.2c0,0,0.1,0,0.1,0.1c0.2,0.5,0.6,1.6,1.2,3.2c0.5,1.3,1.7,4.5,3.6,9.7
				c0.1,0.3,0.2,0.5,0.4,0.6s0.5,0.1,1,0.1C148.6,64.7,148.8,64.7,148.8,64.9z M143.3,60.1c-0.2-0.6-0.6-1.6-1.1-3l-1-2.8
				c-0.6,1.5-1.2,3.4-2,5.7H143.3z"/>
			<path fill="#52646D" d="M156.7,56.1c0,0.1-0.1,0.1-0.3,0.1c-0.5,0-0.8,0.1-0.9,0.2c-0.1,0.1-0.4,0.6-0.9,1.6
				c-0.4,0.8-0.8,1.6-1.2,2.3c-0.2,0.3-0.3,0.5-0.3,0.6c0,0.1,0,0.4,0,0.7v2.5c0,0.3,0,0.4,0.1,0.5c0.1,0,0.4,0.1,0.8,0.1
				c0.2,0,0.4,0.1,0.4,0.2c0,0.1-0.1,0.1-0.3,0.1H154h-0.4h-0.5c-0.1,0-0.3,0-0.6,0c-0.3,0-0.5,0-0.6,0c0,0-0.1,0-0.3,0
				c-0.2,0-0.5,0-1,0h-0.2c-0.2,0-0.3,0-0.3-0.1c0-0.1,0.2-0.2,0.6-0.2s0.6-0.1,0.7-0.1c0.1-0.1,0.1-0.3,0.1-0.7v-2.6
				c-0.1-0.2-0.2-0.4-0.4-0.7l-1.4-2.4c-0.2-0.4-0.4-0.7-0.5-0.9c-0.1-0.2-0.3-0.5-0.4-0.8c-0.1-0.1-0.5-0.2-1-0.2
				c-0.2,0-0.3,0-0.3-0.1c0-0.1,0.1-0.2,0.3-0.2c0,0,0.1,0,0.4,0c0.3,0,0.5,0,0.8,0h0.6h1.8c0.1,0,0.1,0,0.2,0
				c0.2,0,0.3,0.1,0.3,0.2c0,0.1-0.2,0.1-0.5,0.1c-0.5,0-0.8,0.1-0.8,0.3c0,0.2,0.7,1.5,2.1,3.9c1.4-2.5,2-3.9,2-4
				c0-0.1-0.1-0.2-0.3-0.2h-0.4H154c-0.2,0-0.3-0.1-0.3-0.2c0-0.1,0.1-0.1,0.3-0.1h0.8h0.5C156.2,55.9,156.7,55.9,156.7,56.1z"/>
			<path fill="#52646D" d="M165.9,56.1c0,0.1-0.1,0.1-0.3,0.1h-0.1c-0.1,0-0.3,0-0.4,0c-0.2,0-0.3,0.1-0.3,0.4v3.7
				c0,1.3,0,2.1-0.1,2.5c-0.1,0.4-0.2,0.7-0.4,1.1c-0.5,0.8-1.4,1.2-2.8,1.2c-1.1,0-2-0.3-2.6-0.8c-0.6-0.5-0.9-1.4-0.9-2.7v-4.2
				c0-0.7,0-1.1-0.1-1.2c0-0.1-0.2-0.1-0.6-0.1c-0.3,0-0.4-0.1-0.4-0.2c0-0.1,0.1-0.1,0.3-0.1h0.3c0.1,0,0.2,0,0.3,0s0.2,0,0.3,0
				h1.7c0.1,0,0.2,0,0.3,0c0.1,0,0.2,0,0.2,0c0.2,0,0.4,0.1,0.4,0.2c0,0.1-0.2,0.2-0.7,0.2c-0.1,0-0.2,0-0.3,0.1c0,0,0,0.2,0,0.4
				v4.8c0,1.3,0.2,2.1,0.5,2.5c0.4,0.4,0.9,0.7,1.7,0.7c1,0,1.7-0.4,2.1-1.3c0.2-0.4,0.3-1.1,0.3-2c0,0,0-0.1,0-0.2
				c0-0.1,0-0.3,0-0.5v-4.1c0-0.2,0-0.3-0.1-0.3c-0.1,0-0.3-0.1-0.6-0.1c-0.3,0-0.5-0.1-0.5-0.2c0-0.1,0.1-0.1,0.2-0.1
				c0.1,0,0.1,0,0.2,0h0.9c0,0,0.1,0,0.2,0c0.1,0,0.4,0,0.6,0h0.3C165.8,55.9,165.9,56,165.9,56.1z"/>
			<path fill="#52646D" d="M175.4,56.1c0,0.1-0.1,0.1-0.4,0.1c0,0-0.1,0-0.3,0h-0.2c-0.1,0-0.2,0-0.2,0.1c0,0.1,0,0.2,0,0.5v7.3
				c0,0.5,0,0.8,0,0.8c0,0.1-0.1,0.1-0.2,0.1c-0.1,0-0.6-0.6-1.4-1.7c-0.1-0.1-0.2-0.3-0.4-0.6c0,0-0.1-0.1-0.2-0.3
				c-0.7-0.9-1.9-2.5-3.6-5v6.3c0,0.5,0.1,0.8,0.2,0.8c0.1,0,0.4,0,0.8,0h0.1c0.2,0,0.2,0,0.2,0.1c0,0.1-0.1,0.1-0.4,0.1
				c-0.1,0-0.3,0-0.7,0c-0.2,0-0.4,0-0.5,0c-0.1,0-0.3,0-0.4,0c-0.3,0-0.5,0-0.8,0c-0.2,0-0.3,0-0.3-0.1c0-0.1,0.1-0.1,0.4-0.1h0.2
				l0.3,0c0.3,0,0.5-0.1,0.5-0.2c0-0.1,0-0.2,0-0.6v-5.5c0-1-0.1-1.6-0.2-1.8c-0.2-0.3-0.5-0.4-0.9-0.4c-0.3,0-0.5-0.1-0.5-0.2
				c0-0.1,0.1-0.1,0.3-0.1h0.1h1.1c0.1,0,0.1,0,0.3,0c0.1,0,0.3,0,0.4,0h0.7l4.7,6.5v-5.5c0-0.3,0-0.5,0-0.6c0-0.1-0.1-0.1-0.3-0.1
				c-0.2,0-0.3,0-0.4,0h-0.1c-0.3,0-0.4,0-0.4-0.1c0-0.1,0.1-0.1,0.2-0.1c0.1,0,0.6,0,1.3,0c0.7,0,1.2,0,1.3,0
				C175.3,55.9,175.4,56,175.4,56.1z"/>
			<path fill="#52646D" d="M183.8,58.3c0,0.2-0.1,0.3-0.2,0.3c-0.2,0-0.3-0.1-0.3-0.4c0-0.5-0.2-1-0.3-1.3c-0.3-0.5-0.8-0.7-1.7-0.7
				c-0.1,0-0.3,0-0.6,0v8c0,0.3,0.2,0.4,0.6,0.4c0.4,0,0.6,0.1,0.6,0.2c0,0.1-0.1,0.1-0.3,0.1h-0.1c-0.1,0-0.3,0-0.6,0
				c-0.3,0-0.4,0-0.5,0c0,0-0.2,0-0.5,0c-0.3,0-0.6,0-1.1,0h-0.5c-0.3,0-0.4,0-0.4-0.1c0-0.1,0.2-0.1,0.7-0.2c0.2,0,0.3,0,0.3,0
				c0.1,0,0.2-0.1,0.2-0.2c0-0.1,0-0.4,0-1v-7.2c-1,0-1.7,0.1-2,0.3c-0.3,0.2-0.5,0.8-0.6,1.6c0,0.3-0.1,0.5-0.3,0.5
				c-0.1,0-0.2-0.2-0.2-0.5c0-0.4,0.1-1.1,0.2-2.2h4.6c0.4,0,1.2,0,2.5,0c0.1,0,0.2,0,0.4-0.1l0,0.4l0.1,0.7l0.1,0.8l0,0.4
				C183.8,58.2,183.8,58.3,183.8,58.3z"/>
			<path fill="#52646D" d="M193.4,64.9c0,0.1-0.1,0.1-0.4,0.1h-0.1h-1.2h-0.6c-0.2,0-0.5,0-0.9,0h-0.6h-0.4h-0.1
				c-0.2,0-0.4-0.1-0.4-0.2c0-0.1,0.2-0.2,0.7-0.2c0.6,0,0.9-0.1,0.9-0.2c0,0,0-0.2-0.1-0.4c0-0.1-0.2-0.5-0.5-1.3l-0.2-0.7h-2.8
				c-0.5,1.4-0.8,2.2-0.8,2.4c0,0.1,0.1,0.2,0.2,0.2l0.3,0h0.3l0.2,0.1c0.2,0,0.2,0,0.2,0.1c0,0.1-0.1,0.1-0.4,0.1c0,0-0.3,0-0.7,0
				c-0.4,0-0.8,0-1.1,0h-0.2l-0.2,0l-0.2,0h0c-0.2,0-0.3,0-0.3-0.1c0-0.1,0.1-0.1,0.3-0.2c0.2,0,0.4,0,0.5,0c0.2,0,0.4-0.1,0.4-0.2
				c0.1,0,0.4-0.8,1-2.3c0.2-0.6,0.4-1.2,0.7-1.7c0.1-0.2,0.1-0.3,0.2-0.4c0-0.1,0.1-0.2,0.2-0.4c0.2-0.5,0.5-1.4,1-2.5l0.3-0.8
				l0.1-0.4c0.1-0.2,0.2-0.3,0.2-0.3c0,0,0.1,0.2,0.3,0.6c0.4,1,1.4,3.5,3.1,7.7c0.2,0.4,0.3,0.6,0.5,0.7c0,0,0.3,0,0.6,0.1
				C193.3,64.7,193.4,64.8,193.4,64.9z M189.4,61.8l-1.3-3.4c-0.3,0.8-0.8,1.9-1.3,3.4H189.4z"/>
			<path fill="#52646D" d="M203.6,64.8c0,0.1-0.1,0.2-0.4,0.2c0.1,0,0,0-0.2,0c-0.2,0-0.5,0-0.9,0h-0.7c-0.2,0-0.5,0-0.8,0
				c-0.3,0-0.6,0-0.9,0h-0.1c-0.2,0-0.4,0-0.4-0.1c0-0.1,0-0.1,0.1-0.1c0.1,0,0.3,0,0.7,0c0.3,0,0.4-0.1,0.5-0.1
				c0-0.1,0.1-0.3,0.1-0.7v-6.4c-0.2,0.7-0.6,1.8-1.2,3.3c-0.3,0.9-0.7,2.1-1.2,3.5c-0.1,0.4-0.2,0.6-0.3,0.6
				c-0.1,0-0.2-0.2-0.3-0.5c-0.3-0.9-1.2-3.2-2.7-6.8v6.8c0,0.2,0.1,0.3,0.2,0.3c0.2,0,0.4,0,0.7,0c0.2,0,0.3,0,0.3,0.1
				c0,0.1-0.1,0.2-0.4,0.2h-0.3c-0.1,0-0.3,0-0.4,0h-1.1c-0.1,0-0.3,0-0.4,0c-0.2,0-0.3-0.1-0.3-0.2c0-0.1,0.2-0.1,0.6-0.2
				c0.3,0,0.5,0,0.5-0.1c0-0.1,0.1-0.3,0.1-0.6v-6.8c0-0.5,0-0.7-0.1-0.8c-0.1-0.1-0.4-0.1-0.9-0.1c-0.2,0-0.3-0.1-0.3-0.2
				c0-0.1,0.1-0.1,0.3-0.1c0.2,0,1,0,2.4,0l0.1,0.2c0.1,0.1,0.2,0.4,0.3,0.6l0.5,1.2c0.1,0.3,0.4,0.9,0.7,1.7l1.1,2.6
				c0.2-0.6,0.4-1.1,0.5-1.4l1.7-4.9h1.5h0.9c0.3,0,0.5,0,0.5,0.2c0,0.1-0.1,0.2-0.4,0.2c-0.3,0-0.6,0-0.6,0
				c-0.2,0.1-0.3,0.2-0.3,0.4v7c0,0.5,0,0.8,0.1,0.9c0.1,0,0.4,0.1,0.9,0.1C203.5,64.7,203.6,64.7,203.6,64.8z"/>
			<path fill="#52646D" d="M208.1,64.9c0,0.1-0.1,0.1-0.2,0.1h-0.2h-0.4h-0.5c-0.1,0-0.2,0-0.3,0c-0.1,0-0.2,0-0.2,0
				c-0.1,0-0.4,0-0.7,0c-0.4,0-0.6,0-0.8,0h-0.1c-0.2,0-0.3,0-0.3-0.1c0-0.1,0.1-0.1,0.4-0.2c0.4,0,0.6-0.1,0.6-0.1
				c0-0.1,0-0.4,0-0.9v-6.5c0-0.5,0-0.8,0-0.9c0-0.1-0.1-0.1-0.3-0.1h-0.4h-0.2c-0.1,0-0.2,0-0.2-0.1c0-0.1,0.1-0.1,0.3-0.1
				c0,0,0,0,0.1,0c0.1,0,0.2,0,0.4,0h1.4c0.1,0,0.2,0,0.4,0c0.2,0,0.3,0,0.4,0h0.5c0.2,0,0.3,0.1,0.3,0.2c0,0.1-0.2,0.1-0.7,0.1
				c-0.2,0-0.3,0-0.3,0.1c0,0.1-0.1,0.2-0.1,0.5v7.5c0,0.1,0.1,0.2,0.1,0.3c0.1,0,0.3,0.1,0.7,0.1C208,64.7,208.1,64.8,208.1,64.9z"
				/>
			<path fill="#52646D" d="M216.6,62.8c0,0,0,0.1,0,0.3c0,0.2,0,0.3,0,0.4v1.2c0,0.1,0,0.3,0.1,0.4l-3.3-0.1l-3.8,0.1
				c-0.3,0-0.4-0.1-0.4-0.2c0-0.1,0.1-0.2,0.2-0.2c0.4,0,0.7,0,0.7-0.1c0.1-0.1,0.1-0.3,0.1-0.6v-6.9c0-0.5,0-0.8-0.1-0.9
				c-0.1,0-0.3,0-0.7,0c-0.2,0-0.2,0-0.2-0.1c0-0.1,0.1-0.2,0.3-0.2h0.5c0.1,0,0.3,0,0.4,0h0.2h0.5c0.1,0,0.4,0,1,0
				c0.6,0,1.3,0,2.2,0h1.2c0.3,0,0.6,0,0.9,0v0.1l0,0.3c0,0.2,0.1,0.8,0.2,1.8c0,0.1,0,0.1,0,0.2c0,0.2,0,0.3-0.1,0.3
				c-0.1,0-0.2-0.1-0.3-0.4c-0.2-1-0.5-1.6-1.1-1.8c-0.3-0.1-1-0.1-2.1-0.1h-1V60h0.5c0.8,0,1.4-0.1,1.6-0.2
				c0.2-0.1,0.3-0.5,0.4-1.1c0-0.4,0.1-0.6,0.2-0.6c0.1,0,0.2,0.1,0.2,0.4c0,0.2,0,0.4,0,0.7c0,0.3,0,0.6,0,0.8c0,0.9,0,1.5,0,1.8
				c0,0.1,0,0.2,0,0.3c0,0.2-0.1,0.3-0.2,0.3c-0.1,0-0.2-0.2-0.2-0.5c-0.1-0.7-0.2-1.1-0.4-1.3c-0.2-0.1-0.7-0.2-1.6-0.2h-0.5v4.3
				c1.9,0,3.1-0.1,3.4-0.2c0.5-0.1,0.8-0.8,0.9-1.9c0-0.2,0.1-0.3,0.2-0.3C216.5,62.3,216.6,62.5,216.6,62.8z"/>
			<path fill="#52646D" d="M226.1,56.1c0,0.1-0.1,0.1-0.4,0.1c0,0-0.1,0-0.3,0h-0.2c-0.1,0-0.2,0-0.2,0.1c0,0.1,0,0.2,0,0.5v7.3
				c0,0.5,0,0.8,0,0.8c0,0.1-0.1,0.1-0.2,0.1c-0.1,0-0.6-0.6-1.4-1.7c-0.1-0.1-0.2-0.3-0.4-0.6c0,0-0.1-0.1-0.2-0.3
				c-0.7-0.9-1.9-2.5-3.6-5v6.3c0,0.5,0.1,0.8,0.2,0.8c0.1,0,0.4,0,0.8,0h0.1c0.2,0,0.2,0,0.2,0.1c0,0.1-0.1,0.1-0.4,0.1
				c-0.1,0-0.3,0-0.7,0c-0.2,0-0.4,0-0.5,0c-0.1,0-0.3,0-0.4,0c-0.3,0-0.5,0-0.8,0c-0.2,0-0.3,0-0.3-0.1c0-0.1,0.1-0.1,0.4-0.1h0.2
				l0.3,0c0.3,0,0.5-0.1,0.5-0.2c0-0.1,0-0.2,0-0.6v-5.5c0-1-0.1-1.6-0.2-1.8c-0.2-0.3-0.5-0.4-0.9-0.4c-0.3,0-0.5-0.1-0.5-0.2
				c0-0.1,0.1-0.1,0.3-0.1h0.1h1.1c0.1,0,0.1,0,0.3,0c0.1,0,0.3,0,0.4,0h0.7l4.7,6.5v-5.5c0-0.3,0-0.5,0-0.6c0-0.1-0.1-0.1-0.3-0.1
				c-0.2,0-0.3,0-0.4,0h-0.1c-0.3,0-0.4,0-0.4-0.1c0-0.1,0.1-0.1,0.2-0.1c0.1,0,0.6,0,1.3,0c0.7,0,1.2,0,1.3,0
				C226,55.9,226.1,56,226.1,56.1z"/>
			<path fill="#52646D" d="M234.6,58.3c0,0.2-0.1,0.3-0.2,0.3c-0.2,0-0.3-0.1-0.3-0.4c0-0.5-0.2-1-0.3-1.3c-0.3-0.5-0.8-0.7-1.7-0.7
				c-0.1,0-0.3,0-0.6,0v8c0,0.3,0.2,0.4,0.6,0.4c0.4,0,0.6,0.1,0.6,0.2c0,0.1-0.1,0.1-0.3,0.1H232c-0.1,0-0.3,0-0.6,0
				c-0.3,0-0.4,0-0.5,0c0,0-0.2,0-0.5,0c-0.3,0-0.6,0-1.1,0h-0.5c-0.3,0-0.4,0-0.4-0.1c0-0.1,0.2-0.1,0.7-0.2c0.2,0,0.3,0,0.3,0
				c0.1,0,0.2-0.1,0.2-0.2c0-0.1,0-0.4,0-1v-7.2c-1,0-1.7,0.1-2,0.3c-0.3,0.2-0.5,0.8-0.6,1.6c0,0.3-0.1,0.5-0.3,0.5
				c-0.1,0-0.2-0.2-0.2-0.5c0-0.4,0.1-1.1,0.2-2.2h4.6c0.4,0,1.2,0,2.5,0c0.1,0,0.2,0,0.4-0.1l0,0.4l0.1,0.7l0.1,0.8l0,0.4
				C234.6,58.2,234.6,58.3,234.6,58.3z"/>
			<path fill="#52646D" d="M244.3,60.5c0,1.3-0.4,2.4-1.3,3.3c-0.8,0.9-1.9,1.3-3.1,1.3c-1.3,0-2.4-0.5-3.3-1.4
				c-0.9-0.9-1.3-2-1.3-3.3c0-1.4,0.4-2.5,1.3-3.4c0.8-0.9,1.9-1.3,3.2-1.3c1.2,0,2.3,0.5,3.1,1.4C243.9,58,244.3,59.2,244.3,60.5z
				 M242.4,60.6c0-1.5-0.3-2.8-0.9-3.6c-0.4-0.6-0.9-0.9-1.7-0.9c-1,0-1.7,0.5-2.1,1.6c-0.3,0.7-0.5,1.7-0.5,2.8
				c0,1.4,0.2,2.4,0.7,3.2c0.5,0.8,1.1,1.2,2,1.2C241.6,64.8,242.4,63.4,242.4,60.6z"/>
		</g>
	</g>
</g>
</svg>
